# Blender v2.83.0 OBJ File: 'base_cloth.blend'
# www.blender.org
mtllib base_cloth.mtl
o Plane
v -3.260029 3.960711 3.145943
v 1.335237 3.540100 4.354557
v -1.110818 3.008983 -4.299025
v 3.610540 3.960711 -3.886962
v 0.517266 3.960711 4.288859
v 1.395511 3.960711 4.288858
v -1.367029 3.960711 -4.224730
v 2.366238 3.960711 -4.224731
v 1.136862 3.996283 -4.265278
v 2.888558 3.960711 -1.222080
v 0.795799 3.960711 -4.224731
v 0.697750 4.089345 -4.328181
v -1.135082 3.972404 -4.224730
v -0.887767 3.998828 -4.224730
v -1.207335 3.960711 -1.802655
v -0.972429 4.094905 -4.386239
v -2.375213 3.960711 3.389730
v -2.249218 4.036984 3.526629
v -1.964501 3.960711 3.605076
v -2.916564 3.960711 1.483595
v -3.017647 4.036984 1.855973
v -2.965609 3.960711 2.061331
vt 0.000000 0.000000
vt 0.187407 0.000000
vt 0.000000 0.129398
vt 1.000000 0.026490
vt 0.826751 0.000000
vt 1.000000 0.000000
vt 0.000000 0.887395
vt 0.030381 0.892040
vt 0.000000 1.000000
vt 0.507521 0.964996
vt 0.736452 1.000000
vt 1.000000 0.682688
vt 1.000000 1.000000
vt 0.416849 0.951132
vt 0.334226 0.938499
vt 0.063874 0.897161
vt 0.099041 0.902538
vt 0.150598 0.621267
vt 0.240800 0.000000
vt 0.000000 0.161944
vt 0.301104 0.000000
vt 0.000000 0.206371
vn 0.0000 1.0000 0.0000
vn 0.0000 0.1543 0.9880
vn -0.0039 0.0768 -0.9970
vn 0.0318 -0.0383 -0.9988
vn 0.0148 0.9999 -0.0026
vn -0.1475 0.3671 -0.9184
vn -0.0957 0.9932 0.0667
vn 0.2680 -0.4714 -0.8402
vn 0.8094 0.1633 -0.5641
vn -0.7175 0.0356 -0.6956
vn -0.0700 0.0903 -0.9935
vn -0.6106 0.7918 -0.0144
vn 0.6585 0.7461 0.0986
vn 0.8366 -0.1490 -0.5272
vn -0.7718 0.5311 0.3497
vn 0.2796 0.9517 -0.1269
vn -0.0045 1.0000 0.0080
usemtl None
s off
f 1/1/1 17/2/1 22/3/1
f 6/4/2 5/5/2 2/6/2
f 7/7/3 13/8/3 3/9/3
f 3/9/4 9/10/4 8/11/4
f 9/10/5 10/12/5 4/13/5 8/11/5
f 3/9/6 11/14/6 9/10/6
f 11/14/7 10/12/7 9/10/7
f 3/9/8 12/15/8 11/14/8
f 12/15/9 10/12/9 11/14/9
f 3/9/10 13/8/10 16/16/10
f 14/17/11 12/15/11 3/9/11
f 13/8/12 15/18/12 16/16/12
f 16/16/13 15/18/13 14/17/13
f 16/16/14 14/17/14 3/9/14
f 22/3/15 17/2/15 18/19/15 21/20/15
f 21/20/16 18/19/16 19/21/16 20/22/16
f 20/22/17 19/21/17 5/5/17 6/4/17 10/12/17 12/15/17 14/17/17 15/18/17 13/8/17 7/7/17
