# Blender v2.83.0 OBJ File: 'chest_big.blend'
# www.blender.org
mtllib chest_big.mtl
o Cube
v 1.675404 1.056675 -0.555400
v 2.297174 -0.614535 -0.904041
v 1.774558 1.104848 0.537368
v 2.199072 -0.615283 1.000000
v -1.675404 1.056675 -0.555400
v -2.202594 -0.618639 -1.000000
v -1.774558 1.104848 0.537368
v -2.199072 -0.615283 1.000000
v 2.297174 0.710494 1.000000
v -2.297174 0.710494 1.000000
v 2.223613 0.718313 -1.006409
v -2.223613 0.718313 -1.006409
v 2.078608 1.004999 0.806520
v -2.078608 1.004999 0.806520
v 2.004097 0.963543 -0.830377
v -2.004097 0.963543 -0.830377
v 2.227253 0.368590 -0.973791
v 2.227253 0.405813 -0.973791
v -2.227253 0.405813 -0.973791
v -2.227253 0.368590 -0.973791
v 2.223613 0.492592 -1.000000
v 2.297174 0.272632 -0.904041
v -2.199072 0.273379 1.000000
v -2.223613 0.492591 1.000000
v 2.223613 0.492591 1.000000
v 2.199072 0.273379 1.000000
v -2.202594 0.276736 -1.000000
v -2.223613 0.492592 -1.000000
v 2.227253 0.405813 0.973791
v 2.227253 0.368590 0.973791
v -2.227253 0.368590 0.973791
v -2.227253 0.405813 0.973791
v -1.257059 0.186947 1.087620
v -1.257059 0.447375 1.087620
v -1.307616 0.120742 0.998189
v -1.307616 0.638734 0.998189
v -1.142941 0.186947 1.087620
v -1.142941 0.447375 1.087620
v -1.092384 0.120742 0.998189
v -1.092384 0.638734 0.998189
v -2.297174 -0.620638 0.910144
v 2.297174 -0.614535 0.904041
v -2.297174 0.278734 0.910144
v 2.297174 0.272632 0.904041
v 2.297174 -0.710494 1.000000
v 2.202594 -0.618639 -1.000000
v 2.297174 0.368590 1.000000
v 2.202594 0.276736 -1.000000
v 2.297174 -0.710494 -1.000000
v -2.297174 -0.620638 -0.910144
v 2.297174 0.368590 -1.000000
v -2.297174 0.278734 -0.910144
v -2.297174 -0.710494 -1.000000
v -2.297174 -0.710494 1.000000
v -2.297174 0.368590 -1.000000
v -2.297174 0.368590 1.000000
v -2.199072 -0.615283 0.962183
v 2.199072 -0.615283 0.962183
v -2.199072 0.273379 0.962183
v 2.199072 0.273379 0.962183
v 2.215902 -0.614535 0.904041
v 2.215902 -0.614535 -0.904041
v 2.215902 0.272632 0.904041
v 2.215902 0.272632 -0.904041
v 2.202594 -0.618639 -0.962183
v -2.202594 -0.618639 -0.962183
v 2.202594 0.276736 -0.962183
v -2.202594 0.276736 -0.962183
v -2.215902 -0.620638 -0.910144
v -2.215902 -0.620638 0.910144
v -2.215902 0.278734 -0.910144
v -2.215902 0.278734 0.910144
v 2.223613 0.718313 1.006409
v 2.004097 0.963543 0.830377
v -2.004097 0.963543 0.830377
v -2.223613 0.718313 1.006409
v 2.297174 0.710494 -1.000000
v 2.078608 1.004999 -0.806520
v -2.078608 1.004999 -0.806520
v -2.297174 0.710494 -1.000000
v 1.774558 1.104848 -0.537368
v 1.675404 1.056675 0.555400
v -1.675404 1.056675 0.555400
v -1.774558 1.104848 -0.537368
v -2.297174 0.405813 -1.000000
v 2.297174 0.405813 -1.000000
v 2.297174 0.405813 1.000000
v -2.297174 0.405813 1.000000
v 1.669984 1.104848 0.537368
v -1.669984 1.104848 0.537368
v 1.669984 1.104848 -0.537368
v -1.669984 1.104848 -0.537368
v 2.297174 0.486717 1.000000
v 2.297174 0.486717 -1.000000
v -2.297174 0.498466 -1.000000
v -2.297174 0.498466 1.000000
v 1.142941 0.186947 1.087620
v 1.142941 0.447375 1.087620
v 1.092384 0.120742 0.998189
v 1.092384 0.638734 0.998189
v 1.257059 0.186947 1.087620
v 1.257059 0.447375 1.087620
v 1.307616 0.120742 0.998189
v 1.307616 0.638734 0.998189
vt 0.436524 0.307617
vt 0.436524 0.307617
vt 0.436524 0.307617
vt 0.436524 0.307617
vt 0.436524 0.307617
vt 0.436524 0.307617
vt 0.436524 0.307617
vt 0.436524 0.307617
vt 0.575195 0.308594
vt 0.575195 0.308594
vt 0.575195 0.308594
vt 0.575195 0.308594
vt 0.698242 0.306641
vt 0.698242 0.306641
vt 0.698242 0.306641
vt 0.698242 0.306641
vt 0.436524 0.307617
vt 0.436524 0.307617
vt 0.436524 0.307617
vt 0.436524 0.307617
vt 0.694336 0.313477
vt 0.694336 0.313477
vt 0.694336 0.313477
vt 0.694336 0.313477
vt 0.436524 0.307617
vt 0.436524 0.307617
vt 0.436524 0.307617
vt 0.436524 0.307617
vt 0.436524 0.307617
vt 0.436524 0.307617
vt 0.436524 0.307617
vt 0.436524 0.307617
vt 0.436524 0.307617
vt 0.436524 0.307617
vt 0.436524 0.307617
vt 0.436524 0.307617
vt 0.436524 0.307617
vt 0.436524 0.307617
vt 0.436524 0.307617
vt 0.436524 0.307617
vt 0.436524 0.307617
vt 0.436524 0.307617
vt 0.694336 0.313477
vt 0.694336 0.313477
vt 0.694336 0.313477
vt 0.694336 0.313477
vt 0.575195 0.308594
vt 0.575195 0.308594
vt 0.575195 0.308594
vt 0.575195 0.308594
vt 0.436524 0.307617
vt 0.436524 0.307617
vt 0.575195 0.308594
vt 0.575195 0.308594
vt 0.575195 0.308594
vt 0.575195 0.308594
vt 0.698242 0.306641
vt 0.698242 0.306641
vt 0.698242 0.306641
vt 0.698242 0.306641
vt 0.698242 0.306641
vt 0.698242 0.306641
vt 0.698242 0.306641
vt 0.698242 0.306641
vt 0.698242 0.306641
vt 0.698242 0.306641
vt 0.698242 0.306641
vt 0.698242 0.306641
vt 0.575195 0.308594
vt 0.575195 0.308594
vt 0.575195 0.308594
vt 0.575195 0.308594
vt 0.436524 0.307617
vt 0.436524 0.307617
vt 0.436524 0.307617
vt 0.436524 0.307617
vt 0.698242 0.306641
vt 0.698242 0.306641
vt 0.698242 0.306641
vt 0.698242 0.306641
vt 0.310547 0.796875
vt 0.310547 0.796875
vt 0.310547 0.796875
vt 0.310547 0.796875
vt 0.310547 0.796875
vt 0.310547 0.796875
vt 0.310547 0.796875
vt 0.310547 0.796875
vt 0.074219 0.550781
vt 0.074219 0.550781
vt 0.074219 0.550781
vt 0.074219 0.550781
vt 0.164063 0.802734
vt 0.164063 0.802734
vt 0.164063 0.802734
vt 0.164063 0.802734
vt 0.189453 0.562500
vt 0.189453 0.562500
vt 0.189453 0.562500
vt 0.189453 0.562500
vt 0.698242 0.306641
vt 0.698242 0.306641
vt 0.698242 0.306641
vt 0.698242 0.306641
vt 0.698242 0.306641
vt 0.698242 0.306641
vt 0.698242 0.306641
vt 0.698242 0.306641
vt 0.698242 0.306641
vt 0.698242 0.306641
vt 0.698242 0.306641
vt 0.698242 0.306641
vt 0.698242 0.306641
vt 0.698242 0.306641
vt 0.698242 0.306641
vt 0.698242 0.306641
vt 0.436524 0.307617
vt 0.436524 0.307617
vt 0.436524 0.307617
vt 0.436524 0.307617
vt 0.436524 0.307617
vt 0.436524 0.307617
vt 0.436524 0.307617
vt 0.436524 0.307617
vt 0.436524 0.307617
vt 0.436524 0.307617
vt 0.436524 0.307617
vt 0.436524 0.307617
vt 0.436524 0.307617
vt 0.436524 0.307617
vt 0.436524 0.307617
vt 0.436524 0.307617
vt 0.575195 0.308594
vt 0.575195 0.308594
vt 0.575195 0.308594
vt 0.575195 0.308594
vt 0.575195 0.308594
vt 0.575195 0.308594
vt 0.575195 0.308594
vt 0.575195 0.308594
vt 0.575195 0.308594
vt 0.575195 0.308594
vt 0.575195 0.308594
vt 0.575195 0.308594
vt 0.575195 0.308594
vt 0.575195 0.308594
vt 0.575195 0.308594
vt 0.575195 0.308594
vt 0.698242 0.306641
vt 0.698242 0.306641
vt 0.698242 0.306641
vt 0.698242 0.306641
vt 0.698242 0.306641
vt 0.698242 0.306641
vt 0.698242 0.306641
vt 0.698242 0.306641
vt 0.698242 0.306641
vt 0.698242 0.306641
vt 0.698242 0.306641
vt 0.698242 0.306641
vt 0.698242 0.306641
vt 0.698242 0.306641
vt 0.698242 0.306641
vt 0.698242 0.306641
vt 0.573242 0.305176
vt 0.573242 0.305176
vt 0.573242 0.305176
vt 0.573242 0.305176
vt 0.573242 0.305176
vt 0.573242 0.305176
vt 0.573242 0.305176
vt 0.573242 0.305176
vt 0.698242 0.306641
vt 0.698242 0.306641
vt 0.698242 0.306641
vt 0.698242 0.306641
vt 0.698242 0.306641
vt 0.698242 0.306641
vt 0.698242 0.306641
vt 0.698242 0.306641
vt 0.573242 0.305176
vt 0.573242 0.305176
vt 0.573242 0.305176
vt 0.573242 0.305176
vt 0.573242 0.305176
vt 0.573242 0.305176
vt 0.573242 0.305176
vt 0.573242 0.305176
vt 0.573242 0.305176
vt 0.573242 0.305176
vt 0.573242 0.305176
vt 0.573242 0.305176
vt 0.436524 0.307617
vt 0.436524 0.307617
vt 0.436524 0.307617
vt 0.436524 0.307617
vt 0.310547 0.796875
vt 0.310547 0.796875
vt 0.310547 0.796875
vt 0.310547 0.796875
vt 0.310547 0.796875
vt 0.310547 0.796875
vt 0.310547 0.796875
vt 0.310547 0.796875
vt 0.074219 0.550781
vt 0.074219 0.550781
vt 0.074219 0.550781
vt 0.074219 0.550781
vt 0.164063 0.802734
vt 0.164063 0.802734
vt 0.164063 0.802734
vt 0.164063 0.802734
vt 0.189453 0.562500
vt 0.189453 0.562500
vt 0.189453 0.562500
vt 0.189453 0.562500
vn 0.0000 1.0000 -0.0000
vn 0.0000 0.0000 -1.0000
vn 0.0000 -1.0000 0.0000
vn 0.0000 -0.0284 -0.9996
vn -1.0000 0.0000 0.0000
vn 0.0000 0.5831 0.8124
vn 0.8030 0.5960 0.0000
vn -0.8030 0.5960 0.0000
vn 0.0000 0.5831 -0.8124
vn 0.0000 0.9471 0.3208
vn 0.3120 0.9501 -0.0000
vn -0.3120 0.9501 -0.0000
vn 0.0000 0.9471 -0.3208
vn 1.0000 0.0000 0.0000
vn 0.0000 -0.0284 0.9996
vn 0.0000 0.0000 1.0000
vn -0.8705 0.0000 0.4921
vn 0.8705 0.0000 0.4921
vn 0.0000 -0.8037 0.5950
vn 0.0000 0.4234 0.9059
vn 0.0335 0.5830 0.8118
vn -0.0335 0.5830 0.8118
vn 0.0335 0.5830 -0.8118
vn -0.0335 0.5830 -0.8118
vn -0.2222 0.7547 0.6173
vn -0.5869 0.2251 0.7778
vn 0.0000 0.9376 -0.3478
vn -0.2222 0.7547 -0.6173
vn 0.0358 -0.0121 -0.9993
vn 0.0358 -0.0121 0.9993
vn -0.0358 -0.0121 -0.9993
vn -0.0358 -0.0121 0.9993
vn 0.9937 -0.1118 -0.0000
vn -0.9937 -0.1118 -0.0000
vn -0.5869 0.2251 -0.7778
vn 0.5869 0.2251 -0.7778
vn 0.2222 0.7547 -0.6173
vn 0.0000 0.9376 0.3478
vn 0.5869 0.2251 0.7778
vn 0.2222 0.7547 0.6173
usemtl Material
s off
f 1/1/1 5/2/1 83/3/1 82/4/1
f 19/5/2 18/6/2 17/7/2 20/8/2
f 46/9/1 6/10/1 66/11/1 65/12/1
f 53/13/3 49/14/3 45/15/3 54/16/3
f 28/17/4 12/18/4 11/19/4 21/20/4
f 88/21/5 96/22/5 95/23/5 85/24/5
f 74/25/6 75/26/6 76/27/6 73/28/6
f 78/29/7 13/30/7 9/31/7 77/32/7
f 14/33/8 79/34/8 80/35/8 10/36/8
f 16/37/9 15/38/9 11/19/9 12/18/9
f 82/4/10 83/3/10 75/26/10 74/25/10
f 81/39/11 3/40/11 13/30/11 78/29/11
f 7/41/12 84/42/12 79/34/12 14/33/12
f 5/2/13 1/1/13 15/38/13 16/37/13
f 86/43/14 94/44/14 93/45/14 87/46/14
f 26/47/3 23/48/3 59/49/3 60/50/3
f 25/51/15 73/28/15 76/27/15 24/52/15
f 42/53/1 2/54/1 62/55/1 61/56/1
f 86/57/3 87/58/3 29/59/3 18/60/3
f 47/61/1 51/62/1 17/63/1 30/64/1
f 88/65/3 85/66/3 19/67/3 32/68/3
f 87/58/3 88/65/3 32/68/3 29/59/3
f 8/69/1 4/70/1 58/71/1 57/72/1
f 18/6/14 29/73/14 30/74/14 17/7/14
f 32/75/5 19/5/5 20/8/5 31/76/5
f 29/73/16 32/75/16 31/76/16 30/74/16
f 56/77/1 47/61/1 30/64/1 31/78/1
f 55/79/1 56/77/1 31/78/1 20/80/1
f 51/62/1 55/79/1 20/80/1 17/63/1
f 85/66/3 86/57/3 18/60/3 19/67/3
f 33/81/17 34/82/17 36/83/17 35/84/17
f 39/85/18 40/86/18 38/87/18 37/88/18
f 37/89/16 38/90/16 34/91/16 33/92/16
f 35/93/19 39/94/19 37/95/19 33/96/19
f 40/97/20 36/98/20 34/99/20 38/100/20
f 4/101/16 8/102/16 54/16/16 45/15/16
f 23/103/16 26/104/16 47/61/16 56/77/16
f 26/104/16 4/101/16 45/15/16 47/61/16
f 8/102/16 23/103/16 56/77/16 54/16/16
f 2/105/14 42/106/14 45/15/14 49/14/14
f 44/107/14 22/108/14 51/62/14 47/61/14
f 22/108/14 2/105/14 49/14/14 51/62/14
f 42/106/14 44/107/14 47/61/14 45/15/14
f 6/109/2 46/110/2 49/14/2 53/13/2
f 48/111/2 27/112/2 55/79/2 51/62/2
f 46/110/2 48/111/2 51/62/2 49/14/2
f 27/112/2 6/109/2 53/13/2 55/79/2
f 41/113/5 50/114/5 53/13/5 54/16/5
f 52/115/5 43/116/5 56/77/5 55/79/5
f 50/114/5 52/115/5 55/79/5 53/13/5
f 43/116/5 41/113/5 54/16/5 56/77/5
f 58/117/16 60/118/16 59/119/16 57/120/16
f 66/121/2 68/122/2 67/123/2 65/124/2
f 70/125/5 72/126/5 71/127/5 69/128/5
f 62/129/14 64/130/14 63/131/14 61/132/14
f 22/133/3 44/134/3 63/135/3 64/136/3
f 50/137/1 41/138/1 70/139/1 69/140/1
f 4/70/5 26/47/5 60/50/5 58/71/5
f 27/141/3 48/142/3 67/143/3 68/144/3
f 2/54/16 22/133/16 64/136/16 62/55/16
f 43/145/3 52/146/3 71/147/3 72/148/3
f 23/48/14 8/69/14 57/72/14 59/49/14
f 48/142/5 46/9/5 65/12/5 67/143/5
f 44/134/2 42/53/2 61/56/2 63/135/2
f 52/146/16 50/137/16 69/140/16 71/147/16
f 6/10/14 27/141/14 68/144/14 66/11/14
f 41/138/2 43/145/2 72/148/2 70/139/2
f 74/149/21 73/150/21 9/151/21 13/152/21
f 76/153/22 75/154/22 14/155/22 10/156/22
f 11/157/23 15/158/23 78/159/23 77/160/23
f 16/161/24 12/162/24 80/163/24 79/164/24
f 74/165/25 13/166/25 89/167/25
f 82/168/26 74/165/26 89/167/26
f 81/169/27 78/170/27 91/171/27
f 78/170/28 15/172/28 91/171/28
f 28/173/2 21/174/2 86/57/2 85/66/2
f 25/175/16 24/176/16 88/65/16 87/58/16
f 21/174/29 11/157/29 77/160/29 94/177/29 86/57/29
f 73/150/30 25/175/30 87/58/30 93/178/30 9/151/30
f 12/162/31 28/173/31 85/66/31 95/179/31 80/163/31
f 24/176/32 76/153/32 10/156/32 96/180/32 88/65/32
f 84/181/1 7/182/1 90/183/1 92/184/1
f 3/185/1 81/169/1 91/171/1 89/167/1
f 5/186/33 92/184/33 90/183/33 83/187/33
f 82/168/34 89/167/34 91/171/34 1/188/34
f 1/188/35 91/171/35 15/172/35
f 16/189/36 92/184/36 5/186/36
f 16/189/37 79/190/37 92/184/37
f 84/181/27 92/184/27 79/190/27
f 3/185/38 89/167/38 13/166/38
f 75/191/39 83/187/39 90/183/39
f 14/192/40 75/191/40 90/183/40
f 14/192/38 90/183/38 7/182/38
f 93/193/14 94/194/14 77/32/14 9/31/14
f 95/195/5 96/196/5 10/36/5 80/35/5
f 97/197/17 98/198/17 100/199/17 99/200/17
f 103/201/18 104/202/18 102/203/18 101/204/18
f 101/205/16 102/206/16 98/207/16 97/208/16
f 99/209/19 103/210/19 101/211/19 97/212/19
f 104/213/20 100/214/20 98/215/20 102/216/20
