# Blender v2.83.0 OBJ File: 'laminaria_double.blend'
# www.blender.org
mtllib laminaria_double.mtl
o Plane
v -0.021766 -0.054972 0.169744
v -0.036347 2.505693 -0.075184
v 0.211503 2.248932 0.048862
v 0.405138 1.964392 0.007182
v 0.539118 1.528387 -0.122270
v 0.549583 1.036792 -0.126059
v 0.420218 0.525248 0.004114
v 0.215175 0.164460 -0.026648
v -0.212548 0.126703 0.031545
v -0.348274 0.370025 0.003484
v -0.459911 0.776593 -0.205965
v -0.464509 1.238930 -0.265233
v -0.389518 1.663579 -0.286504
v -0.269727 2.112141 -0.153628
v 0.013374 2.035914 -0.174951
v 0.019853 1.364329 -0.255526
v 0.015086 0.872006 -0.222747
v 0.001635 0.475298 -0.054904
v -0.006586 0.236172 -0.055463
v -0.019160 1.982654 -0.061948
v 0.001273 1.365322 -0.127781
v -0.002933 0.903521 -0.098864
v 0.001635 0.474436 0.074185
v 0.010862 0.235309 0.072442
v 0.034999 2.984285 0.098308
v -0.189095 2.618987 0.438956
v -0.357383 2.373902 0.555963
v -0.377856 1.831156 0.674742
v -0.586500 1.371873 0.655086
v -0.367031 0.582432 0.606650
v -0.189577 0.133317 0.499417
v 0.102474 0.086317 0.181551
v 0.224853 0.389208 0.116495
v 0.444499 0.667936 0.206427
v 0.485877 1.235893 0.373888
v 0.441739 1.999445 0.313356
v 0.156096 2.557822 0.287566
v 0.060426 2.462934 0.392486
v 0.106882 1.626933 0.612130
v 0.089624 1.014081 0.522602
v -0.007182 0.520254 0.502383
v 0.102338 0.222585 0.380013
v 0.013320 2.396634 0.376977
v 0.039624 1.628169 0.440692
v 0.024400 1.053312 0.415750
v -0.089599 0.519180 0.285476
v -0.095587 0.221511 0.292708
vt 0.094698 0.450394
vt 0.094698 0.450394
vt 0.094698 0.450394
vt 0.198561 0.439542
vt 0.198561 0.439542
vt 0.198561 0.439542
vt 0.094698 0.450394
vt 0.198561 0.439542
vt 0.094698 0.450394
vt 0.094698 0.450394
vt 0.198561 0.439542
vt 0.198561 0.439542
vt 0.198561 0.439542
vt 0.198561 0.439542
vt 0.094698 0.450394
vt 0.094698 0.450394
vt 0.198561 0.439542
vt 0.198561 0.439542
vt 0.094698 0.450394
vt 0.094698 0.450394
vt 0.198561 0.439542
vt 0.198561 0.439542
vt 0.198561 0.439542
vt 0.094698 0.450394
vt 0.094698 0.450394
vt 0.094698 0.450394
vt 0.094698 0.450394
vt 0.198561 0.439542
vt 0.094698 0.450394
vt 0.198561 0.439542
vt 0.198561 0.439542
vt 0.198561 0.439542
vt 0.094698 0.450394
vt 0.094698 0.450394
vt 0.198561 0.439542
vt 0.094698 0.450394
vt 0.094698 0.450394
vt 0.094698 0.450394
vt 0.094698 0.450394
vt 0.198561 0.439542
vt 0.198561 0.439542
vt 0.198561 0.439542
vt 0.094698 0.450394
vt 0.198561 0.439542
vt 0.094698 0.450394
vt 0.094698 0.450394
vt 0.198561 0.439542
vt 0.198561 0.439542
vt 0.198561 0.439542
vt 0.198561 0.439542
vt 0.094698 0.450394
vt 0.094698 0.450394
vt 0.198561 0.439542
vt 0.198561 0.439542
vt 0.094698 0.450394
vt 0.094698 0.450394
vt 0.198561 0.439542
vt 0.198561 0.439542
vt 0.094698 0.450394
vt 0.094698 0.450394
vt 0.094698 0.450394
vt 0.198561 0.439542
vt 0.094698 0.450394
vt 0.198561 0.439542
vt 0.198561 0.439542
vt 0.198561 0.439542
vt 0.094698 0.450394
vt 0.094698 0.450394
vt 0.198561 0.439542
vt 0.094698 0.450394
vn 0.6128 0.2257 -0.7573
vn -0.0183 0.2059 -0.9784
vn 0.7007 0.0916 -0.7075
vn -0.0428 0.1186 -0.9920
vn 0.1390 0.3209 -0.9369
vn 0.0345 -0.0561 -0.9978
vn -0.2070 -0.3752 -0.9035
vn 0.1746 0.0113 -0.9846
vn -0.0097 -0.4601 -0.8878
vn 0.1669 -0.2826 -0.9446
vn -0.2597 -0.2523 -0.9321
vn -0.0092 -0.6115 -0.7912
vn 0.1319 0.0096 -0.9912
vn -0.0934 -0.6061 -0.7899
vn 0.0373 -0.0667 -0.9971
vn 0.1399 -0.0025 -0.9902
vn 0.2364 -0.1212 -0.9641
vn 0.2773 -0.3823 -0.8814
vn 0.2677 -0.0666 -0.9612
vn -0.1669 0.0080 -0.9859
vn 0.2317 0.2189 -0.9478
vn 0.2066 0.2780 -0.9381
vn -0.4407 0.0082 0.8976
vn -0.3378 0.0127 0.9411
vn -0.3234 -0.1109 0.9397
vn -0.3913 -0.1104 0.9136
vn 0.0702 -0.2640 0.9620
vn -0.3068 0.1016 0.9463
vn -0.0629 0.3727 0.9258
vn 0.0508 -0.0066 0.9987
vn -0.2897 0.3743 0.8809
vn 0.1363 0.2118 0.9678
vn -0.1849 0.0102 0.9827
vn -0.3241 0.3332 0.8854
vn 0.3423 -0.2712 0.8996
vn 0.4877 0.2277 0.8428
vn -0.2980 0.0624 0.9525
vn 0.1652 -0.0008 0.9863
vn -0.4631 0.1082 0.8797
vn -0.0444 0.3733 0.9267
vn -0.0292 0.0627 0.9976
vn -0.1938 -0.0146 0.9809
vn -0.4606 -0.1368 0.8770
vn -0.0571 -0.1826 0.9815
vn 0.4317 0.4591 0.7764
vn 0.4038 0.4644 0.7882
vn 0.3299 0.2570 0.9084
vn 0.6039 0.2338 0.7620
vn 0.2085 0.2016 0.9570
vn 0.5999 0.0976 0.7941
vn 0.4055 -0.1166 0.9066
vn 0.1376 -0.1047 0.9849
vn 0.5618 -0.6196 0.5482
vn 0.2813 0.0193 0.9594
vn 0.9196 -0.3237 0.2229
vn 0.6620 -0.6176 0.4245
vn 0.3943 -0.0631 0.9168
vn 0.4486 -0.6584 0.6044
vn 0.4169 -0.1429 0.8977
vn 0.2168 -0.3019 0.9284
vn 0.5878 -0.2679 0.7634
vn 0.1556 -0.0708 0.9853
vn 0.0660 -0.1461 0.9871
vn 0.8683 0.1219 0.4808
vn 0.4546 0.2717 0.8483
vn 0.2848 0.2467 0.9263
vn -0.5876 -0.3289 -0.7393
vn -0.0855 -0.4243 -0.9015
vn -0.3800 -0.0893 -0.9206
vn -0.4545 -0.0890 -0.8863
vn -0.5409 -0.1603 -0.8257
vn -0.2243 -0.0899 -0.9704
vn -0.1928 0.2712 -0.9430
vn -0.2821 0.1686 -0.9445
vn -0.2567 0.4740 -0.8423
vn -0.7619 -0.1735 -0.6240
vn -0.4851 0.0082 -0.8744
vn -0.2842 0.3253 -0.9019
vn -0.8489 -0.2208 -0.4802
vn -0.9012 -0.0491 -0.4307
vn -0.1083 0.0460 -0.9931
vn -0.7568 -0.0007 -0.6536
vn -0.2188 0.2906 -0.9315
vn -0.2227 0.2756 -0.9351
vn -0.4695 0.0507 -0.8815
vn -0.4771 -0.0118 -0.8788
vn -0.1812 -0.1377 -0.9738
vn -0.4576 -0.1072 -0.8827
usemtl Material.001
s off
f 2/1/1 3/2/1 15/3/1
f 2/4/2 15/5/2 14/6/2
f 3/2/3 16/7/3 15/3/3
f 15/5/4 16/8/4 14/6/4
f 4/9/5 5/10/5 16/7/5
f 16/8/6 12/11/6 13/12/6
f 17/13/7 18/14/7 12/11/7
f 5/10/8 6/15/8 17/16/8
f 18/14/9 10/17/9 11/18/9
f 6/15/10 7/19/10 18/20/10
f 19/21/11 9/22/11 10/17/11
f 9/22/12 19/21/12 1/23/12
f 7/19/13 8/24/13 19/25/13
f 8/24/14 1/26/14 19/25/14
f 12/11/15 16/8/15 17/13/15
f 7/19/16 19/25/16 18/20/16
f 18/14/17 11/18/17 12/11/17
f 6/15/18 18/20/18 17/16/18
f 5/10/19 17/16/19 16/7/19
f 10/17/20 18/14/20 19/21/20
f 16/8/21 13/12/21 14/6/21
f 16/7/22 3/2/22 4/9/22
f 2/1/23 20/27/23 3/2/23
f 2/4/24 14/6/24 20/28/24
f 3/2/25 20/27/25 21/29/25
f 20/28/26 14/6/26 21/30/26
f 4/9/27 21/29/27 5/10/27
f 21/30/28 13/12/28 12/11/28
f 22/31/29 12/11/29 23/32/29
f 5/10/30 22/33/30 6/15/30
f 23/32/31 11/18/31 10/17/31
f 6/15/32 23/34/32 7/19/32
f 24/35/33 10/17/33 9/22/33
f 9/22/34 1/23/34 24/35/34
f 7/19/35 24/36/35 8/24/35
f 8/24/36 24/36/36 1/26/36
f 12/11/37 22/31/37 21/30/37
f 7/19/38 23/34/38 24/36/38
f 23/32/39 12/11/39 11/18/39
f 6/15/40 22/33/40 23/34/40
f 5/10/41 21/29/41 22/33/41
f 10/17/42 24/35/42 23/32/42
f 21/30/43 14/6/43 13/12/43
f 21/29/44 4/9/44 3/2/44
f 25/37/45 26/38/45 38/39/45
f 25/40/46 38/41/46 37/42/46
f 26/38/47 39/43/47 38/39/47
f 38/41/48 39/44/48 37/42/48
f 27/45/49 28/46/49 39/43/49
f 39/44/50 35/47/50 36/48/50
f 40/49/51 41/50/51 35/47/51
f 28/46/52 29/51/52 40/52/52
f 41/50/53 33/53/53 34/54/53
f 29/51/54 30/55/54 41/56/54
f 42/57/55 32/58/55 33/53/55
f 32/58/56 42/57/56 1/23/56
f 30/55/57 31/59/57 42/60/57
f 31/59/58 1/26/58 42/60/58
f 35/47/59 39/44/59 40/49/59
f 30/55/60 42/60/60 41/56/60
f 41/50/61 34/54/61 35/47/61
f 29/51/62 41/56/62 40/52/62
f 28/46/63 40/52/63 39/43/63
f 33/53/64 41/50/64 42/57/64
f 39/44/65 36/48/65 37/42/65
f 39/43/66 26/38/66 27/45/66
f 25/37/67 43/61/67 26/38/67
f 25/40/68 37/42/68 43/62/68
f 26/38/69 43/61/69 44/63/69
f 43/62/70 37/42/70 44/64/70
f 27/45/71 44/63/71 28/46/71
f 44/64/72 36/48/72 35/47/72
f 45/65/73 35/47/73 46/66/73
f 28/46/74 45/67/74 29/51/74
f 46/66/75 34/54/75 33/53/75
f 29/51/76 46/68/76 30/55/76
f 47/69/77 33/53/77 32/58/77
f 32/58/78 1/23/78 47/69/78
f 30/55/79 47/70/79 31/59/79
f 31/59/80 47/70/80 1/26/80
f 35/47/81 45/65/81 44/64/81
f 30/55/82 46/68/82 47/70/82
f 46/66/83 35/47/83 34/54/83
f 29/51/84 45/67/84 46/68/84
f 28/46/85 44/63/85 45/67/85
f 33/53/86 47/69/86 46/66/86
f 44/64/87 37/42/87 36/48/87
f 44/63/88 27/45/88 26/38/88
