# Blender v2.83.0 OBJ File: 'plant_tall.blend'
# www.blender.org
mtllib plant_tall.mtl
o Circle
v -0.031464 0.000000 -0.096771
v -0.068075 0.000000 0.075634
v 0.099538 0.000000 0.021137
v 0.000000 3.844411 -0.000000
v -0.031464 0.419360 -0.096771
v 0.040268 0.838721 -0.093452
v 0.085830 1.258081 -0.054662
v 0.101716 1.677442 0.002905
v 0.074088 2.096802 0.069754
v 0.017980 2.516163 0.100157
v -0.033145 2.935523 0.096209
v -0.063805 3.354884 0.079269
v -0.036747 3.354884 -0.094891
v -0.066747 2.935524 -0.076809
v -0.095728 2.516163 -0.034508
v -0.097453 2.096802 0.029285
v -0.053374 1.677442 0.086637
v 0.004424 1.258081 0.101662
v 0.060798 0.838721 0.081598
v 0.099538 0.419360 0.021137
v 0.100552 3.354884 0.015622
v 0.099891 2.935524 -0.019400
v 0.077749 2.516163 -0.065649
v 0.023364 2.096802 -0.099039
v -0.048342 1.677442 -0.089541
v -0.090253 1.258081 -0.047000
v -0.101065 0.838721 0.011853
v -0.068075 0.419360 0.075634
v 0.276778 1.150723 -0.474293
v 0.351475 1.546762 -0.827018
v 0.194957 1.886730 -0.799354
v -0.550278 2.960684 0.333442
v -0.369609 2.616950 0.548820
v 0.155712 1.535187 0.332274
v 0.294765 1.931227 0.587791
v -0.260530 2.267678 0.631448
v 0.365283 2.271195 0.496997
v 0.512475 2.547065 0.296786
v 0.040926 2.065112 -0.514114
v -0.238406 1.818866 -0.637808
v -0.367531 1.469594 -0.643326
v 0.589698 1.406165 -0.016176
v 0.690591 1.854059 -0.039931
v 0.568910 2.203331 0.081743
v -0.277934 1.021700 -0.519634
v -0.266564 1.819785 0.527972
v -0.743618 2.684815 0.276759
v -0.810754 2.344847 0.133487
v -0.535116 1.948807 0.040488
v 0.399577 3.554103 -0.653168
v 0.343519 3.903375 -0.569527
v 0.240284 3.245889 -0.450440
v 0.175756 4.247109 -0.352473
v 0.367199 3.971239 -0.293989
v 0.590917 3.631271 -0.150097
v 0.504279 3.235232 -0.059673
v -0.706059 3.112220 0.077180
v -0.677156 3.461492 -0.056575
v -0.614786 2.664326 0.028059
v -0.558089 3.805226 -0.311236
v -0.588252 3.529356 -0.510443
v -0.486671 3.189388 -0.631750
v -0.286079 2.793349 -0.421066
v 0.238847 3.768055 0.369321
v 0.155792 4.004587 0.410427
v 0.174323 3.464736 0.341684
v -0.029353 4.237367 0.454764
v -0.122170 4.050545 0.554773
v -0.229287 3.820315 0.552124
v -0.202277 3.552112 0.356981
v -0.190780 4.251830 0.003529
v -0.079640 4.450544 -0.038299
v -0.150651 3.997005 0.081882
v -0.007836 4.646108 0.024065
v 0.061153 4.489155 0.079333
v 0.131256 4.295734 -0.023734
v 0.097800 4.070412 -0.043229
v -0.053374 1.677442 0.086637
v -0.550278 2.960684 0.333442
v -0.369609 2.616950 0.548820
v -0.260530 2.267678 0.631448
v -0.266564 1.819785 0.527972
v -0.743618 2.684815 0.276759
v -0.810754 2.344847 0.133487
v -0.535116 1.948807 0.040488
v 0.000000 3.844411 -0.000000
v 0.040268 0.838721 -0.093452
v 0.085830 1.258081 -0.054662
v -0.063805 3.354884 0.079269
v -0.095728 2.516163 -0.034508
v 0.099891 2.935524 -0.019400
v 0.276778 1.150723 -0.474293
v 0.351475 1.546762 -0.827018
v 0.194957 1.886730 -0.799354
v 0.155712 1.535187 0.332274
v 0.294765 1.931227 0.587791
v 0.365283 2.271195 0.496997
v 0.512475 2.547065 0.296786
v 0.040926 2.065112 -0.514114
v -0.238406 1.818866 -0.637808
v -0.367531 1.469594 -0.643326
v 0.589698 1.406165 -0.016176
v 0.690591 1.854059 -0.039931
v 0.568910 2.203331 0.081743
v -0.277934 1.021700 -0.519634
v 0.399577 3.554103 -0.653168
v 0.343519 3.903375 -0.569527
v 0.240284 3.245889 -0.450440
v 0.175756 4.247109 -0.352473
v 0.367199 3.971239 -0.293989
v 0.590917 3.631271 -0.150097
v 0.504279 3.235232 -0.059673
v -0.706059 3.112220 0.077180
v -0.677156 3.461492 -0.056575
v -0.614786 2.664326 0.028059
v -0.558089 3.805226 -0.311236
v -0.588252 3.529356 -0.510443
v -0.486671 3.189388 -0.631750
v -0.286079 2.793349 -0.421066
v 0.238847 3.768055 0.369321
v 0.155792 4.004587 0.410427
v 0.174323 3.464736 0.341684
v -0.029353 4.237367 0.454764
v -0.122170 4.050545 0.554773
v -0.229287 3.820315 0.552124
v -0.202277 3.552112 0.356981
v -0.190780 4.251830 0.003529
v -0.079640 4.450544 -0.038299
v -0.150651 3.997005 0.081882
v -0.007836 4.646108 0.024065
v 0.061153 4.489155 0.079333
v 0.131256 4.295734 -0.023734
v 0.097800 4.070412 -0.043229
vt 0.081072 0.446022
vt 0.081072 0.446022
vt 0.081072 0.446022
vt 0.081072 0.446022
vt 0.081072 0.446022
vt 0.081072 0.446022
vt 0.081072 0.446022
vt 0.081072 0.446022
vt 0.081072 0.446022
vt 0.081072 0.446022
vt 0.081072 0.446022
vt 0.081072 0.446022
vt 0.081072 0.446022
vt 0.081072 0.446022
vt 0.081072 0.446022
vt 0.081072 0.446022
vt 0.081072 0.446022
vt 0.081072 0.446022
vt 0.081072 0.446022
vt 0.081072 0.446022
vt 0.081072 0.446022
vt 0.081072 0.446022
vt 0.081072 0.446022
vt 0.081072 0.446022
vt 0.081072 0.446022
vt 0.081072 0.446022
vt 0.081072 0.446022
vt 0.081072 0.446022
vt 0.324689 0.446022
vt 0.324689 0.446022
vt 0.324689 0.446022
vt 0.324689 0.446022
vt 0.324689 0.446022
vt 0.324689 0.446022
vt 0.324689 0.446022
vt 0.324689 0.446022
vt 0.324689 0.446022
vt 0.324689 0.446022
vt 0.324689 0.446022
vt 0.324689 0.446022
vt 0.324689 0.446022
vt 0.324689 0.446022
vt 0.324689 0.446022
vt 0.324689 0.446022
vt 0.324689 0.446022
vt 0.324689 0.446022
vt 0.324689 0.446022
vt 0.324689 0.446022
vt 0.324689 0.446022
vt 0.324689 0.446022
vt 0.324689 0.446022
vt 0.324689 0.446022
vt 0.324689 0.446022
vt 0.324689 0.446022
vt 0.324689 0.446022
vt 0.324689 0.446022
vt 0.324689 0.446022
vt 0.324689 0.446022
vt 0.324689 0.446022
vt 0.324689 0.446022
vt 0.324689 0.446022
vt 0.324689 0.446022
vt 0.324689 0.446022
vt 0.324689 0.446022
vt 0.324689 0.446022
vt 0.324689 0.446022
vt 0.324689 0.446022
vt 0.324689 0.446022
vt 0.324689 0.446022
vt 0.324689 0.446022
vt 0.324689 0.446022
vt 0.324689 0.446022
vt 0.324689 0.446022
vt 0.324689 0.446022
vt 0.324689 0.446022
vt 0.324689 0.446022
vt 0.324689 0.446022
vt 0.324689 0.446022
vt 0.324689 0.446022
vt 0.324689 0.446022
vt 0.324689 0.446022
vt 0.324689 0.446022
vt 0.324689 0.446022
vt 0.324689 0.446022
vt 0.324689 0.446022
vt 0.324689 0.446022
vt 0.324689 0.446022
vt 0.324689 0.446022
vt 0.324689 0.446022
vt 0.324689 0.446022
vt 0.324689 0.446022
vt 0.324689 0.446022
vt 0.324689 0.446022
vt 0.324689 0.446022
vt 0.324689 0.446022
vt 0.324689 0.446022
vt 0.324689 0.446022
vt 0.324689 0.446022
vt 0.324689 0.446022
vt 0.324689 0.446022
vt 0.324689 0.446022
vt 0.324689 0.446022
vt 0.324689 0.446022
vt 0.324689 0.446022
vt 0.324689 0.446022
vt 0.324689 0.446022
vt 0.324689 0.446022
vt 0.324689 0.446022
vt 0.324689 0.446022
vt 0.324689 0.446022
vt 0.324689 0.446022
vt 0.324689 0.446022
vt 0.324689 0.446022
vt 0.324689 0.446022
vt 0.324689 0.446022
vt 0.324689 0.446022
vt 0.324689 0.446022
vt 0.324689 0.446022
vt 0.324689 0.446022
vt 0.324689 0.446022
vt 0.324689 0.446022
vt 0.324689 0.446022
vt 0.324689 0.446022
vt 0.324689 0.446022
vt 0.324689 0.446022
vt 0.324689 0.446022
vt 0.324689 0.446022
vt 0.324689 0.446022
vt 0.324689 0.446022
vt 0.324689 0.446022
vt 0.324689 0.446022
vt 0.324689 0.446022
vt 0.324689 0.446022
vt 0.324689 0.446022
vt 0.324689 0.446022
vt 0.324689 0.446022
vt 0.324689 0.446022
vt 0.324689 0.446022
vt 0.324689 0.446022
vt 0.324689 0.446022
vn 0.0000 -1.0000 0.0000
vn -0.9782 0.0000 -0.2077
vn -0.5891 -0.1666 -0.7907
vn -0.0431 -0.1378 -0.9895
vn 0.5195 -0.1375 -0.8433
vn 0.9441 -0.1679 -0.2837
vn 0.9305 -0.1474 0.3354
vn 0.6514 -0.1171 0.7496
vn 0.3600 -0.0782 0.9297
vn 0.3092 0.0000 0.9510
vn -0.0462 0.0000 0.9989
vn -0.8354 -0.1378 0.5321
vn -0.8395 -0.0966 0.5347
vn -0.7178 -0.1679 -0.6758
vn -0.7244 -0.1008 -0.6820
vn 0.3235 -0.1171 -0.9390
vn 0.3251 -0.0639 -0.9435
vn 0.6690 0.0000 -0.7433
vn 0.9793 -0.1666 -0.1149
vn 0.8785 -0.1378 0.4575
vn 0.4706 -0.1375 0.8716
vn -0.2264 -0.1679 0.9595
vn -0.7557 -0.1474 0.6381
vn -0.9749 -0.1171 0.1893
vn -0.9851 -0.0782 -0.1531
vn -0.3919 0.1378 0.9096
vn -0.9949 0.0966 -0.0284
vn -0.9854 0.1679 -0.0281
vn -0.1758 0.1008 -0.9793
vn -0.1755 0.1171 -0.9775
vn 0.6257 0.0639 -0.7774
vn 0.6237 0.1034 -0.7748
vn -0.9645 0.1666 -0.2048
vn -0.5918 0.1378 -0.7942
vn -0.0431 0.1375 -0.9896
vn 0.5171 0.1679 -0.8393
vn 0.9472 0.1474 -0.2847
vn 0.9343 0.1171 0.3368
vn 0.6539 0.0782 0.7525
vn 0.3592 0.1034 0.9275
vn 0.6596 0.1666 -0.7329
vn 0.9837 0.1378 -0.1154
vn 0.8785 0.1375 0.4575
vn 0.4683 0.1679 0.8675
vn -0.2271 0.1474 0.9627
vn -0.7588 0.1171 0.6407
vn -0.9787 0.0782 0.1901
vn -0.9829 0.1034 -0.1527
vn 0.3426 -0.7022 0.6241
vn 0.3659 -0.1498 0.9185
vn 0.2440 0.0335 0.9692
vn 0.2060 0.2986 0.9319
vn -0.2333 0.8182 0.5255
vn -0.2142 0.6719 0.7090
vn -0.8956 -0.1686 -0.4116
vn -0.8798 0.1397 -0.4543
vn -0.8437 0.0319 -0.5359
vn -0.8265 0.1575 -0.5405
vn -0.1973 0.8136 -0.5470
vn -0.3902 0.5920 -0.7052
vn 0.5873 -0.0081 -0.8093
vn 0.5479 -0.2181 -0.8076
vn 0.6743 0.1697 -0.7187
vn 0.6747 0.1575 -0.7211
vn 0.4934 0.8688 -0.0419
vn 0.7618 0.5920 -0.2630
vn -0.9737 -0.1874 0.1298
vn -0.8242 -0.5293 0.2012
vn -0.8386 -0.3914 0.3790
vn -0.8006 0.5578 0.2189
vn -0.5270 0.7617 0.3768
vn -0.7878 0.2957 0.5403
vn 0.9815 -0.0081 0.1911
vn 0.9634 -0.2181 0.1561
vn 0.9361 0.1697 0.3082
vn 0.9384 0.1575 0.3075
vn 0.2947 0.8394 0.4568
vn 0.5598 0.5920 0.5798
vn -0.4619 -0.0081 -0.8869
vn -0.4779 -0.2181 -0.8509
vn -0.3420 0.1697 -0.9243
vn -0.3439 0.1575 -0.9257
vn 0.1746 0.8418 -0.5108
vn 0.1049 0.5920 -0.7991
vn -0.6358 0.4824 0.6026
vn -0.6395 -0.0104 0.7688
vn 0.1340 -0.4278 0.8939
vn 0.0399 0.2994 0.9533
vn 0.4560 -0.0272 0.8896
vn 0.4790 -0.1460 0.8656
vn -0.5873 0.0081 0.8093
vn -0.5479 0.2181 0.8076
vn -0.6743 -0.1697 0.7187
vn -0.6747 -0.1575 0.7211
vn -0.4934 -0.8688 0.0419
vn -0.7618 -0.5920 0.2630
vn -0.3426 0.7022 -0.6241
vn -0.3659 0.1498 -0.9185
vn -0.2440 -0.0335 -0.9692
vn -0.2060 -0.2986 -0.9319
vn 0.2333 -0.8182 -0.5255
vn 0.2142 -0.6719 -0.7090
vn 0.8956 0.1686 0.4116
vn 0.8798 -0.1397 0.4543
vn 0.8437 -0.0319 0.5359
vn 0.8265 -0.1575 0.5405
vn 0.1973 -0.8136 0.5470
vn 0.3902 -0.5920 0.7052
vn 0.9737 0.1874 -0.1298
vn 0.8242 0.5293 -0.2012
vn 0.8386 0.3914 -0.3790
vn 0.8006 -0.5578 -0.2189
vn 0.5270 -0.7617 -0.3768
vn 0.7878 -0.2957 -0.5403
vn -0.9815 0.0081 -0.1911
vn -0.9634 0.2181 -0.1561
vn -0.9361 -0.1697 -0.3082
vn -0.9384 -0.1575 -0.3075
vn -0.2947 -0.8394 -0.4568
vn -0.5598 -0.5920 -0.5798
vn 0.4619 0.0081 0.8869
vn 0.4779 0.2181 0.8509
vn 0.3420 -0.1697 0.9243
vn 0.3439 -0.1575 0.9257
vn -0.1746 -0.8418 0.5108
vn -0.1049 -0.5920 0.7991
vn 0.6358 -0.4824 -0.6026
vn 0.6395 0.0104 -0.7688
vn -0.1340 0.4278 -0.8939
vn -0.0399 -0.2994 -0.9533
vn -0.4560 0.0272 -0.8896
vn -0.4790 0.1460 -0.8656
usemtl Material.001
s off
f 2/1/1 1/2/1 3/3/1
f 2/1/2 28/4/2 5/5/2
f 28/4/3 27/6/3 6/7/3
f 27/6/4 26/8/4 7/9/4
f 26/8/5 25/10/5 8/11/5
f 25/10/6 24/12/6 9/13/6
f 24/12/7 23/14/7 10/15/7
f 23/14/8 22/16/8 11/17/8
f 22/16/9 21/18/9 12/19/9
f 2/1/10 3/3/10 20/20/10 28/4/10
f 28/4/11 20/20/11 19/21/11 27/6/11
f 19/21/12 18/22/12 26/8/12
f 26/8/13 18/22/13 17/23/13
f 17/23/14 16/24/14 24/12/14
f 24/12/15 16/24/15 15/25/15
f 15/25/16 14/26/16 22/16/16
f 22/16/17 14/26/17 13/27/17
f 1/2/18 5/5/18 20/20/18
f 5/5/19 6/7/19 19/21/19
f 6/7/20 7/9/20 18/22/20
f 7/9/21 8/11/21 17/23/21
f 8/11/22 9/13/22 16/24/22
f 9/13/23 10/15/23 15/25/23
f 10/15/24 11/17/24 14/26/24
f 11/17/25 12/19/25 13/27/25
f 27/6/26 19/21/26 26/8/26
f 25/10/27 26/8/27 17/23/27
f 25/10/28 17/23/28 24/12/28
f 23/14/29 24/12/29 15/25/29
f 23/14/30 15/25/30 22/16/30
f 21/18/31 22/16/31 13/27/31
f 21/18/32 13/27/32 4/28/32
f 1/2/2 2/1/2 5/5/2
f 5/5/33 28/4/33 6/7/33
f 6/7/34 27/6/34 7/9/34
f 7/9/35 26/8/35 8/11/35
f 8/11/36 25/10/36 9/13/36
f 9/13/37 24/12/37 10/15/37
f 10/15/38 23/14/38 11/17/38
f 11/17/39 22/16/39 12/19/39
f 12/19/40 21/18/40 4/28/40
f 3/3/18 1/2/18 20/20/18
f 20/20/41 5/5/41 19/21/41
f 19/21/42 6/7/42 18/22/42
f 18/22/43 7/9/43 17/23/43
f 17/23/44 8/11/44 16/24/44
f 16/24/45 9/13/45 15/25/45
f 15/25/46 10/15/46 14/26/46
f 14/26/47 11/17/47 13/27/47
f 13/27/48 12/19/48 4/28/48
f 31/29/49 39/30/49 40/31/49
f 31/29/50 40/31/50 41/32/50
f 31/29/51 41/32/51 30/33/51
f 41/32/52 45/34/52 30/33/52
f 45/34/53 6/35/53 29/36/53
f 45/34/54 29/36/54 30/33/54
f 37/37/55 44/38/55 43/39/55
f 37/37/56 38/40/56 44/38/56
f 37/37/57 43/39/57 35/41/57
f 43/39/58 42/42/58 35/41/58
f 42/42/59 7/43/59 34/44/59
f 42/42/60 34/44/60 35/41/60
f 47/45/61 33/46/61 36/47/61
f 47/45/62 32/48/62 33/46/62
f 47/45/63 36/47/63 48/49/63
f 36/47/64 46/50/64 48/49/64
f 46/50/65 17/51/65 49/52/65
f 46/50/66 49/52/66 48/49/66
f 54/53/67 51/54/67 50/55/67
f 54/53/68 53/56/68 51/54/68
f 54/53/69 50/55/69 55/57/69
f 50/55/70 52/58/70 55/57/70
f 52/58/71 22/59/71 56/60/71
f 52/58/72 56/60/72 55/57/72
f 61/61/73 58/62/73 57/63/73
f 61/61/74 60/64/74 58/62/74
f 61/61/75 57/63/75 62/65/75
f 57/63/76 59/66/76 62/65/76
f 59/66/77 15/67/77 63/68/77
f 59/66/78 63/68/78 62/65/78
f 68/69/79 65/70/79 64/71/79
f 68/69/80 67/72/80 65/70/80
f 68/69/81 64/71/81 69/73/81
f 64/71/82 66/74/82 69/73/82
f 66/74/83 12/75/83 70/76/83
f 66/74/84 70/76/84 69/73/84
f 75/77/85 72/78/85 71/79/85
f 75/77/86 74/80/86 72/78/86
f 75/77/87 71/79/87 76/81/87
f 71/79/88 73/82/88 76/81/88
f 73/82/89 4/83/89 77/84/89
f 73/82/90 77/84/90 76/81/90
f 83/85/91 81/86/91 80/87/91
f 83/85/92 80/87/92 79/88/92
f 83/85/93 84/89/93 81/86/93
f 81/86/94 84/89/94 82/90/94
f 82/90/95 85/91/95 78/92/95
f 82/90/96 84/89/96 85/91/96
f 94/93/97 100/94/97 99/95/97
f 94/93/98 101/96/98 100/94/98
f 94/93/99 93/97/99 101/96/99
f 101/96/100 93/97/100 105/98/100
f 105/98/101 92/99/101 87/100/101
f 105/98/102 93/97/102 92/99/102
f 97/101/103 103/102/103 104/103/103
f 97/101/104 104/103/104 98/104/104
f 97/101/105 96/105/105 103/102/105
f 103/102/106 96/105/106 102/106/106
f 102/106/107 95/107/107 88/108/107
f 102/106/108 96/105/108 95/107/108
f 110/109/109 106/110/109 107/111/109
f 110/109/110 107/111/110 109/112/110
f 110/109/111 111/113/111 106/110/111
f 106/110/112 111/113/112 108/114/112
f 108/114/113 112/115/113 91/116/113
f 108/114/114 111/113/114 112/115/114
f 117/117/115 113/118/115 114/119/115
f 117/117/116 114/119/116 116/120/116
f 117/117/117 118/121/117 113/118/117
f 113/118/118 118/121/118 115/122/118
f 115/122/119 119/123/119 90/124/119
f 115/122/120 118/121/120 119/123/120
f 124/125/121 120/126/121 121/127/121
f 124/125/122 121/127/122 123/128/122
f 124/125/123 125/129/123 120/126/123
f 120/126/124 125/129/124 122/130/124
f 122/130/125 126/131/125 89/132/125
f 122/130/126 125/129/126 126/131/126
f 131/133/127 127/134/127 128/135/127
f 131/133/128 128/135/128 130/136/128
f 131/133/129 132/137/129 127/134/129
f 127/134/130 132/137/130 129/138/130
f 129/138/131 133/139/131 86/140/131
f 129/138/132 132/137/132 133/139/132
l 19 28
