# Blender v2.83.0 OBJ File: 'ship.blend'
# www.blender.org
mtllib ship.mtl
o Cylinder
v 1.161971 0.284685 -0.413739
v -1.161971 0.284685 -0.413739
v 1.853547 -1.869910 1.070146
v 1.617982 1.171454 1.112963
v -1.853547 -1.869910 1.070145
v -1.617982 1.171454 1.112962
v -0.562003 0.399364 -1.203925
v 0.562003 0.399364 -1.203925
v 0.353493 1.792480 -1.096250
v -0.353493 1.792480 -1.096250
v 1.172172 1.415418 -0.016282
v -1.172172 1.415418 -0.016282
v 1.617982 1.181030 2.983857
v 1.617982 -1.635571 2.983857
v -1.617982 -1.635571 2.983857
v -2.017161 0.938279 2.337237
v -1.853547 1.181030 1.070145
v -1.161971 0.533495 -0.350721
v 0.444230 0.868349 -1.235966
v 1.161971 0.533495 -0.350721
v -0.474580 1.871136 -1.318295
v 1.853547 1.181030 1.070146
v 1.853546 1.181030 2.983857
v 1.853546 -1.871136 2.983857
v -1.853547 -1.871136 2.983857
v -1.781597 0.938279 2.337237
v -1.617982 -1.283543 0.906240
v 1.617982 -1.283543 0.906240
v 1.172172 0.630720 -0.223005
v -1.172172 0.630720 -0.223005
v -0.444230 1.226120 -2.121104
v -0.562003 1.062991 -2.085982
v 1.381320 -1.129048 -0.124074
v 0.474580 1.871136 -1.318295
v 1.381320 1.448106 -0.124075
v -0.444230 0.868349 -1.235966
v -1.381320 -1.129048 -0.124075
v -1.381320 1.448106 -0.124075
v 0.444230 1.226120 -2.121104
v 0.562003 1.062991 -2.085982
v 0.017136 2.457633 -4.553599
v -0.023543 1.141796 -0.958718
v 0.068742 2.431664 -4.563792
v 0.126002 1.066540 -0.988256
v 0.070386 2.377312 -4.585807
v 0.130766 0.909036 -1.052052
v 0.020424 2.348930 -4.597629
v -0.014017 0.826789 -1.086311
v -0.031182 2.374900 -4.587436
v -0.163562 0.902046 -1.056772
v -0.032826 2.429252 -4.565421
v -0.168326 1.059550 -0.992976
v 0.137988 1.072420 -1.821620
v 0.137988 1.181975 -2.070547
v 0.137988 1.327489 -1.743502
v 0.137988 1.437045 -1.992429
v -0.010306 1.403538 -1.700231
v -0.010306 1.513094 -1.949158
v -0.137988 1.327489 -1.743502
v -0.137988 1.437045 -1.992429
v -0.137988 1.072420 -1.821620
v -0.137988 1.181975 -2.070547
v 0.235532 1.077516 -1.841550
v 0.235532 1.326443 -1.731995
v -0.000000 1.450907 -1.677217
v -0.000000 1.560462 -1.926144
v 0.235532 1.435999 -1.980922
v -0.235532 1.326443 -1.731995
v -0.235532 1.435999 -1.980922
v -0.235532 1.077516 -1.841550
v -0.235532 1.187072 -2.090478
v 0.235532 1.187072 -2.090478
v -0.000000 -1.869910 1.070146
v -0.000000 -1.871136 2.983857
v -1.735765 1.176242 1.091554
v 1.735764 1.176242 1.091554
v -1.853547 -0.373744 1.070145
v -1.853547 -0.315137 1.070145
v 1.853547 -0.315137 1.070146
v 1.853547 -0.373744 1.070146
v 2.133971 -0.374395 2.180174
v 1.853546 -0.315711 1.985929
v -1.853547 -0.299863 3.089308
v -1.853547 -0.374395 2.862841
v 1.898407 -0.363266 2.180174
v 1.617982 -0.304571 1.985929
v -1.617982 -0.284248 3.084506
v -1.617982 -0.358070 2.862841
v 1.617982 -0.402084 1.007151
v 1.617982 -0.343884 1.012052
v -1.617982 -0.338688 1.012051
v -1.617982 -0.396888 1.007151
v 1.853547 -1.077076 1.070146
v 1.853547 -1.137275 1.070146
v -1.853547 -1.137275 1.070145
v -1.853547 -1.077076 1.070145
v 2.133971 -1.077925 2.180174
v 1.853546 -1.138264 2.715032
v -1.955097 -1.077925 2.862841
v -1.853547 -1.217046 2.779208
v 1.617982 -1.099568 2.715032
v 1.898407 -1.039199 2.180174
v 0.028336 -1.635571 2.983857
v -0.028336 -1.635571 2.983857
v -1.617982 -1.207089 2.779208
v -1.719532 -1.067939 2.862841
v -0.028336 -1.283543 0.906240
v 0.028336 -1.283543 0.906240
v -1.853547 0.374062 2.882059
v -2.017161 0.446615 2.591215
v 1.853546 0.389362 2.591215
v 1.853546 0.446615 2.983857
v 1.617982 0.393105 1.058881
v 1.617982 0.450138 1.063683
v -1.617982 -1.093087 0.960429
v -1.617982 -1.152684 0.955411
v -1.853547 0.389679 1.070145
v -1.853547 0.446910 1.070145
v 1.853547 0.446910 1.070146
v 1.853547 0.389679 1.070146
v 1.617982 0.454111 2.983857
v 1.617982 0.396856 2.591215
v -1.617982 0.382201 2.879555
v -1.781597 0.455132 2.591215
v 1.617982 -1.110815 0.955411
v 1.617982 -1.051218 0.960430
v -1.617982 0.451160 1.063683
v -1.617982 0.394127 1.058880
v 0.028336 -1.399842 0.886534
v -0.028336 -1.399842 0.886534
v -1.617982 -0.013001 2.825967
v -1.853547 -0.016280 2.826975
v 1.853546 0.142352 2.322390
v 1.853546 -0.039987 2.322390
v 1.617982 0.137624 2.322390
v 1.617982 -0.042922 2.322390
v 1.617982 0.911551 3.275711
v 1.853546 0.890545 3.275711
v 1.853546 -1.421142 2.983857
v 1.617982 -1.406866 2.983857
v -1.718351 1.177328 1.863986
v -1.952276 1.181030 1.834742
v -1.969041 1.050903 1.964577
v -1.734790 1.047927 1.987000
v -0.934127 1.656739 -0.713049
v -0.773271 1.731784 -0.924904
v -0.786077 1.593243 -0.525602
v -0.612082 1.673381 -0.755130
v -0.689935 1.413219 -0.711521
v -0.839475 1.419621 -0.803883
v 0.452574 1.434959 -1.242888
v 0.457426 1.569605 -1.254577
v 1.200245 0.885184 -0.269631
v 1.190859 0.840685 -0.281659
v 0.460828 1.416775 -1.280992
v 0.466963 1.619452 -1.297632
v 1.249515 0.898525 -0.260264
v 1.226065 0.800746 -0.284495
v -1.422061 -1.404234 0.343357
v -1.517669 -1.342962 0.220739
v -1.448948 0.011961 0.046950
v -1.596065 -1.465955 0.418996
v -1.172575 -1.501138 0.475709
vt 0.088368 0.337579
vt 0.088368 0.337579
vt 0.088368 0.337579
vt 0.088368 0.337579
vt 0.088368 0.337579
vt 0.088368 0.337579
vt 0.088368 0.337579
vt 0.088368 0.337579
vt 0.088368 0.337579
vt 0.088368 0.337579
vt 0.088368 0.337579
vt 0.088368 0.337579
vt 0.088368 0.337579
vt 0.088368 0.337579
vt 0.088368 0.337579
vt 0.088368 0.337579
vt 0.088368 0.337579
vt 0.088368 0.337579
vt 0.088368 0.337579
vt 0.088368 0.337579
vt 0.088368 0.337579
vt 0.088368 0.337579
vt 0.088368 0.337579
vt 0.215484 0.322077
vt 0.215484 0.322077
vt 0.215484 0.322077
vt 0.215484 0.322077
vt 0.088368 0.337579
vt 0.088368 0.337579
vt 0.088368 0.337579
vt 0.088368 0.337579
vt 0.088368 0.337579
vt 0.088368 0.337579
vt 0.088368 0.337579
vt 0.088368 0.337579
vt 0.088368 0.337579
vt 0.088368 0.337579
vt 0.088368 0.337579
vt 0.088368 0.337579
vt 0.088368 0.337579
vt 0.088368 0.337579
vt 0.088368 0.337579
vt 0.088368 0.337579
vt 0.088368 0.337579
vt 0.088368 0.337579
vt 0.088368 0.337579
vt 0.088368 0.337579
vt 0.088368 0.337579
vt 0.088368 0.337579
vt 0.088368 0.337579
vt 0.088368 0.337579
vt 0.206183 0.317426
vt 0.206183 0.317426
vt 0.206183 0.317426
vt 0.206183 0.317426
vt 0.088368 0.337579
vt 0.088368 0.337579
vt 0.088368 0.337579
vt 0.088368 0.337579
vt 0.088368 0.337579
vt 0.088368 0.337579
vt 0.088368 0.337579
vt 0.088368 0.337579
vt 0.206183 0.317426
vt 0.206183 0.317426
vt 0.215484 0.322077
vt 0.215484 0.322077
vt 0.215484 0.322077
vt 0.215484 0.322077
vt 0.088368 0.337579
vt 0.088368 0.337579
vt 0.088368 0.337579
vt 0.088368 0.337579
vt 0.088368 0.337579
vt 0.088368 0.337579
vt 0.088368 0.337579
vt 0.088368 0.337579
vt 0.088368 0.337579
vt 0.347251 0.309675
vt 0.347251 0.309675
vt 0.347251 0.309675
vt 0.347251 0.309675
vt 0.206183 0.317426
vt 0.206183 0.317426
vt 0.088368 0.337579
vt 0.807659 0.311226
vt 0.807659 0.311226
vt 0.807659 0.311226
vt 0.807659 0.311226
vt 0.088368 0.337579
vt 0.088368 0.337579
vt 0.088368 0.337579
vt 0.088368 0.337579
vt 0.088368 0.337579
vt 0.088368 0.337579
vt 0.088368 0.337579
vt 0.088368 0.337579
vt 0.088368 0.337579
vt 0.088368 0.337579
vt 0.088368 0.337579
vt 0.088368 0.337579
vt 0.088368 0.337579
vt 0.317797 0.315876
vt 0.317797 0.315876
vt 0.317797 0.315876
vt 0.317797 0.315876
vt 0.317797 0.315876
vt 0.317797 0.315876
vt 0.337950 0.322077
vt 0.337950 0.322077
vt 0.337950 0.322077
vt 0.337950 0.322077
vt 0.337950 0.322077
vt 0.337950 0.322077
vt 0.337950 0.322077
vt 0.337950 0.322077
vt 0.088368 0.337579
vt 0.088368 0.337579
vt 0.088368 0.337579
vt 0.088368 0.337579
vt 0.337949 0.322077
vt 0.337949 0.322077
vt 0.088368 0.337579
vt 0.088368 0.337579
vt 0.088368 0.337579
vt 0.088368 0.337579
vt 0.088368 0.337579
vt 0.088368 0.337579
vt 0.337950 0.322077
vt 0.337949 0.322077
vt 0.088368 0.337579
vt 0.337950 0.322077
vt 0.088368 0.337579
vt 0.337950 0.322077
vt 0.088368 0.337579
vt 0.088368 0.337579
vt 0.088368 0.337579
vt 0.337950 0.322077
vt 0.088368 0.337579
vt 0.088368 0.337579
vt 0.088368 0.337579
vt 0.088368 0.337579
vt 0.088368 0.337579
vt 0.088368 0.337579
vt 0.088368 0.337579
vt 0.088368 0.337579
vt 0.088368 0.337579
vt 0.088368 0.337579
vt 0.215484 0.322077
vt 0.215484 0.322077
vt 0.215484 0.322077
vt 0.215484 0.322077
vt 0.088368 0.337579
vt 0.088368 0.337579
vt 0.088368 0.337579
vt 0.088368 0.337579
vt 0.088368 0.337579
vt 0.088368 0.337579
vt 0.088368 0.337579
vt 0.088368 0.337579
vt 0.088368 0.337579
vt 0.088368 0.337579
vt 0.088368 0.337579
vt 0.088368 0.337579
vt 0.215484 0.322077
vt 0.215484 0.322077
vt 0.215484 0.322077
vt 0.215484 0.322077
vt 0.088368 0.337579
vt 0.088368 0.337579
vt 0.088368 0.337579
vt 0.088368 0.337579
vt 0.088368 0.337579
vt 0.088368 0.337579
vt 0.088368 0.337579
vt 0.088368 0.337579
vt 0.088368 0.337579
vt 0.088368 0.337579
vt 0.088368 0.337579
vt 0.088368 0.337579
vt 0.088368 0.337579
vt 0.088368 0.337579
vt 0.088368 0.337579
vt 0.088368 0.337579
vt 0.088368 0.337579
vt 0.088368 0.337579
vt 0.088368 0.337579
vt 0.088368 0.337579
vt 0.088368 0.337579
vt 0.088368 0.337579
vt 0.088368 0.337579
vt 0.068215 0.298824
vt 0.068215 0.298824
vt 0.068215 0.298824
vt 0.068215 0.298824
vt 0.215484 0.322077
vt 0.215484 0.322077
vt 0.215484 0.322077
vt 0.215484 0.322077
vt 0.347251 0.309675
vt 0.347251 0.309675
vt 0.347251 0.309675
vt 0.347251 0.309675
vt 0.068215 0.298824
vt 0.068215 0.298824
vt 0.068215 0.298824
vt 0.068215 0.298824
vt 0.088368 0.337579
vt 0.088368 0.337579
vt 0.088368 0.337579
vt 0.088368 0.337579
vt 0.088368 0.337579
vt 0.215484 0.322077
vt 0.215484 0.322077
vt 0.215484 0.322077
vt 0.215484 0.322077
vt 0.215484 0.322077
vt 0.215484 0.322077
vt 0.215484 0.322077
vt 0.088368 0.337579
vt 0.088368 0.337579
vt 0.215484 0.322077
vt 0.215484 0.322077
vt 0.215484 0.322077
vt 0.215484 0.322077
vt 0.088368 0.337579
vt 0.088368 0.337579
vt 0.088368 0.337579
vt 0.088368 0.337579
vt 0.088368 0.337579
vt 0.215484 0.322077
vt 0.215484 0.322077
vt 0.215484 0.322077
vt 0.215484 0.322077
vt 0.088368 0.337579
vt 0.088368 0.337579
vt 0.088368 0.337579
vt 0.088368 0.337579
vt 0.088368 0.337579
vt 0.286793 0.325177
vt 0.286793 0.325177
vt 0.286793 0.325177
vt 0.286793 0.325177
vt 0.215484 0.322077
vt 0.215484 0.322077
vt 0.215484 0.322077
vt 0.215484 0.322077
vt 0.215484 0.322077
vt 0.215484 0.322077
vt 0.215484 0.322077
vt 0.215484 0.322077
vt 0.215484 0.322077
vt 0.215484 0.322077
vt 0.215484 0.322077
vt 0.215484 0.322077
vt 0.215484 0.322077
vt 0.215484 0.322077
vt 0.328648 0.315876
vt 0.328648 0.315876
vt 0.328648 0.315876
vt 0.328648 0.315876
vt 0.088368 0.337579
vt 0.088368 0.337579
vt 0.088368 0.337579
vt 0.088368 0.337579
vt 0.215484 0.322077
vt 0.215484 0.322077
vt 0.215484 0.322077
vt 0.215484 0.322077
vt 0.215484 0.322077
vn 0.0000 -0.5770 -0.8167
vn 0.9695 0.0000 -0.2449
vn -0.0296 0.9267 0.3746
vn 0.0000 -0.8498 -0.5272
vn 0.0000 0.9271 0.3747
vn 1.0000 0.0000 0.0000
vn -0.9970 0.0720 -0.0282
vn 0.9448 -0.0415 0.3250
vn 0.0177 0.9750 0.2214
vn 0.0076 0.9451 0.3267
vn 0.0000 0.9426 0.3339
vn -0.0177 0.9750 0.2214
vn -0.0125 0.9462 0.3234
vn -0.9301 0.2819 -0.2356
vn -0.9926 -0.0225 -0.1194
vn 0.8123 -0.1486 0.5639
vn -0.8123 -0.1486 0.5639
vn 0.0000 -0.2105 -0.9776
vn -0.1812 0.3478 0.9199
vn 0.7964 -0.0003 -0.6047
vn 0.7692 -0.0596 -0.6363
vn -0.0000 -0.0818 -0.9966
vn -0.7964 -0.0003 -0.6047
vn -0.7771 -0.0535 -0.6271
vn 0.7687 0.0143 -0.6394
vn -0.7687 0.0143 -0.6394
vn 0.0000 0.6008 0.7994
vn 0.9301 0.2819 -0.2356
vn -0.5385 -0.6733 -0.5066
vn -0.0000 -0.7991 -0.6012
vn 0.5385 -0.6733 -0.5066
vn 0.0296 0.9267 0.3746
vn 0.4755 0.8244 0.3071
vn 0.9995 0.0318 -0.0039
vn 0.5241 -0.7833 -0.3344
vn -0.4753 -0.8055 -0.3539
vn -0.0059 -0.3756 0.9268
vn -0.9990 -0.0129 -0.0428
vn -0.5236 0.8019 0.2876
vn 0.0059 0.3756 -0.9268
vn 0.5000 0.7927 0.3489
vn -0.5000 0.7927 0.3489
vn -1.0000 0.0000 0.0000
vn 0.0477 -0.3486 0.9361
vn -0.0516 -0.5167 0.8546
vn 0.0516 0.5167 -0.8546
vn 0.0590 -0.5227 0.8505
vn -0.0590 0.5227 -0.8505
vn -0.0477 -0.3486 0.9361
vn 0.0477 0.3486 -0.9361
vn 0.0000 -0.9688 -0.2477
vn 0.0000 0.9688 0.2477
vn -0.0477 0.3486 -0.9361
vn 0.5633 -0.7563 -0.3328
vn -0.5062 -0.7894 -0.3474
vn 0.9299 -0.0000 -0.3677
vn -0.0136 -0.7813 0.6240
vn -0.9299 0.0000 -0.3677
vn 0.0107 -0.1370 0.9905
vn 0.9925 0.0186 0.1208
vn 0.0000 0.0000 1.0000
vn -0.0079 0.9561 0.2929
vn 0.0000 0.9859 0.1671
vn -0.9735 -0.0081 0.2284
vn -0.0000 0.5081 0.8613
vn -0.9447 -0.0415 0.3252
vn 0.9969 -0.0729 0.0282
vn -0.0329 -0.5433 0.8389
vn -0.0084 0.4621 0.8868
vn -0.0206 0.9998 -0.0025
vn 0.0000 -1.0000 -0.0006
vn 0.2449 -0.0406 0.9687
vn -0.0354 0.9993 -0.0080
vn -0.0146 -0.9997 0.0170
vn 0.0348 -0.9992 0.0205
vn -0.1447 -0.9887 0.0396
vn -0.0265 0.9996 0.0076
vn -0.0382 -0.0420 0.9984
vn 0.4277 -0.0378 0.9031
vn 0.1377 0.9905 -0.0030
vn 0.0000 -0.1671 0.9859
vn -0.0114 -0.9999 0.0059
vn 0.0271 -0.9996 0.0041
vn 0.0232 0.9997 -0.0011
vn 0.0208 0.9991 0.0379
vn 0.0131 0.9999 -0.0105
vn 0.0383 -0.0420 0.9984
vn -0.0228 -0.9997 0.0010
vn -0.2441 -0.0407 0.9689
vn -0.4332 -0.0377 0.9005
vn 0.0000 0.9937 0.1117
vn -0.0185 0.6843 0.7289
vn -0.0043 -0.7280 0.6855
vn 0.0322 0.7213 0.6919
vn 0.0755 0.6715 0.7371
vn 0.0283 0.9996 -0.0002
vn -0.0684 0.7007 0.7102
vn -0.5581 0.3561 0.7495
vn -0.0013 0.9436 0.3310
vn 0.6133 0.6119 -0.4994
vn 0.7748 -0.0604 -0.6293
vn 0.7846 -0.0474 -0.6182
vn 0.9779 -0.0143 0.2088
vn 0.1420 0.2136 -0.9666
vn 0.3096 -0.6554 -0.6889
vn 0.7349 0.6598 -0.1565
vn -0.7525 0.1212 0.6473
vn -0.3303 -0.1994 -0.9226
vn 0.0159 -0.7923 -0.6100
vn -0.1955 -0.9297 -0.3121
usemtl Material.001
s off
f 7/1/1 8/2/1 33/3/1 37/4/1
f 81/5/2 97/6/2 93/7/2 80/8/2
f 19/9/3 20/10/3 39/11/3
f 37/4/4 33/3/4 3/12/4 73/13/4 5/14/4 162/15/4 163/16/4 160/17/4
f 36/18/5 19/9/5 39/11/5 31/19/5
f 94/20/6 98/21/6 139/22/6 24/23/6 3/12/6
f 96/24/7 99/25/7 84/26/7 77/27/7
f 12/28/8 6/29/8 127/30/8 128/31/8 91/32/8 92/33/8 115/34/8 116/35/8 27/36/8 30/37/8
f 6/29/9 12/28/9 38/38/9 17/39/9 75/40/9
f 9/41/10 11/42/10 35/43/10 34/44/10
f 10/45/11 9/41/11 34/44/11 21/46/11
f 11/42/12 4/47/12 76/48/12 22/49/12 35/43/12
f 12/28/13 147/50/13 145/51/13 38/38/13
f 2/52/14 18/53/14 31/54/14 32/55/14
f 118/56/15 110/57/15 16/58/15 143/59/15 142/60/15 17/39/15
f 10/45/16 148/61/16 149/62/16 147/50/16 12/28/16 30/37/16
f 11/42/17 9/41/17 29/63/17
f 32/55/18 31/54/18 39/64/18 40/65/18
f 105/66/19 100/67/19 25/68/19 15/69/19
f 8/2/20 1/70/20 33/3/20
f 20/10/21 19/9/21 155/71/21 158/72/21
f 19/9/22 36/18/22 21/46/22 34/44/22 156/73/22 155/71/22
f 2/74/23 7/1/23 37/4/23
f 36/18/24 18/75/24 38/38/24 145/51/24 150/76/24 146/77/24 21/46/24
f 1/70/25 20/10/25 158/72/25 157/78/25 35/43/25 33/3/25
f 18/75/26 2/74/26 37/4/26 38/38/26
f 9/79/27 10/80/27 30/81/27 29/82/27
f 40/65/28 39/64/28 20/83/28 1/84/28
f 7/1/29 2/74/29 32/85/29
f 8/86/30 7/87/30 32/88/30 40/89/30
f 1/70/31 8/2/31 40/90/31
f 18/75/32 36/18/32 31/19/32
f 41/91/33 42/92/33 44/93/33 43/94/33
f 43/94/34 44/93/34 46/95/34 45/96/34
f 45/96/35 46/95/35 48/97/35 47/98/35
f 47/98/36 48/97/36 50/99/36 49/100/36
f 44/93/37 42/92/37 52/101/37 50/99/37 48/97/37 46/95/37
f 49/100/38 50/99/38 52/101/38 51/102/38
f 51/102/39 52/101/39 42/92/39 41/91/39
f 41/103/40 43/104/40 45/105/40 47/106/40 49/107/40 51/108/40
f 63/109/6 72/110/6 67/111/6 64/112/6
f 64/112/41 67/111/41 66/113/41 65/114/41
f 65/114/42 66/113/42 69/115/42 68/116/42
f 62/117/6 60/118/6 59/119/6 61/120/6
f 68/116/43 69/115/43 71/121/43 70/122/43
f 55/123/44 53/124/44 63/125/44 64/126/44
f 57/127/45 55/123/45 64/126/45 65/128/45
f 56/129/46 58/130/46 66/113/46 67/111/46
f 59/119/47 57/127/47 65/128/47 68/131/47
f 58/130/48 60/132/48 69/115/48 66/113/48
f 61/120/49 59/119/49 68/131/49 70/133/49
f 60/132/50 62/134/50 71/121/50 69/115/50
f 53/124/51 61/120/51 70/133/51 63/125/51
f 62/117/52 54/135/52 72/136/52 71/137/52
f 54/138/53 56/129/53 67/111/53 72/110/53
f 60/118/54 58/139/54 57/127/54 59/119/54
f 58/139/55 56/140/55 55/123/55 57/127/55
f 56/140/43 54/135/43 53/124/43 55/123/43
f 128/31/6 123/141/6 131/142/6 87/143/6 91/32/6
f 116/35/6 105/144/6 15/145/6 27/36/6
f 33/3/56 35/43/56 22/49/56 119/146/56 120/147/56 79/148/56 80/8/56 93/7/56 94/20/56 3/12/56
f 82/149/57 134/150/57 136/151/57 86/152/57
f 25/153/43 100/154/43 95/155/43 5/14/43
f 120/147/6 111/156/6 133/157/6 134/158/6 82/159/6 79/148/6
f 5/14/58 95/155/58 96/160/58 77/161/58 78/162/58 117/163/58 118/56/58 17/39/58 38/38/58 37/4/58 160/17/58 161/164/58 162/15/58
f 123/165/59 109/166/59 132/167/59 131/168/59
f 4/47/43 114/169/43 121/170/43 137/171/43 13/172/43
f 101/173/43 125/174/43 28/175/43 14/176/43 140/177/43
f 6/29/60 141/178/60 144/179/60 26/180/60 124/181/60 127/30/60
f 84/182/61 99/183/61 106/184/61 88/185/61
f 122/186/43 113/187/43 90/188/43 86/189/43 136/190/43 135/191/43
f 16/58/62 26/180/62 144/179/62 143/59/62
f 108/192/63 103/193/63 14/194/63 28/195/63
f 85/196/64 89/197/64 126/198/64 102/199/64
f 28/200/65 29/82/65 30/81/65 27/201/65 107/202/65 108/203/65
f 15/204/63 104/205/63 107/206/63 27/207/63
f 25/153/61 74/208/61 24/23/61 14/176/61 103/209/61 104/210/61 15/145/61
f 4/47/66 11/42/66 29/63/66 28/175/66 125/174/66 126/211/66 89/212/66 90/188/66 113/187/66 114/169/66
f 23/213/6 138/214/6 112/215/6 119/216/6 22/217/6
f 102/199/61 97/218/61 81/219/61 85/196/61
f 24/23/61 139/22/61 140/177/61 14/176/61
f 88/185/67 106/184/67 115/34/67 92/33/67
f 121/170/68 112/220/68 138/221/68 137/171/68
f 16/222/69 110/223/69 124/224/69 26/225/69
f 4/47/70 13/172/70 23/226/70 22/49/70 76/48/70
f 24/23/71 74/208/71 25/153/71 5/14/71 73/13/71 3/12/71
f 78/162/72 77/161/72 92/33/72 91/32/72
f 81/5/73 80/8/73 89/212/73 85/227/73
f 83/228/74 78/162/74 91/32/74 87/143/74
f 79/148/75 82/159/75 86/189/75 90/188/75
f 102/229/76 126/211/76 93/7/76 97/6/76
f 123/141/77 128/31/77 117/163/77 109/230/77
f 120/147/78 119/146/78 114/169/78 113/187/78
f 96/160/79 95/155/79 116/35/79 115/34/79
f 125/231/80 101/232/80 98/233/80 94/234/80
f 108/235/81 107/236/81 130/237/81 129/238/81
f 99/183/82 96/160/82 115/34/82 106/184/82
f 127/30/83 124/181/83 110/57/83 118/56/83
f 111/156/84 120/147/84 113/187/84 122/186/84
f 83/228/43 132/239/43 109/230/43 117/163/43 78/162/43
f 95/155/85 100/154/85 105/144/85 116/35/85
f 77/161/86 84/182/86 88/185/86 92/33/86
f 128/31/87 127/30/87 118/56/87 117/163/87
f 119/146/88 112/220/88 121/170/88 114/169/88
f 80/8/89 79/148/89 90/188/89 89/212/89
f 126/211/90 125/174/90 94/20/90 93/7/90
f 130/240/91 104/241/91 103/242/91 129/243/91
f 103/209/43 108/235/43 129/238/43
f 107/236/6 104/210/6 130/237/6
f 131/142/92 132/239/92 83/228/92 87/143/92
f 136/151/61 134/150/61 133/244/61 135/245/61
f 135/191/93 133/157/93 111/156/93 122/186/93
f 137/246/94 138/214/94 23/213/94 13/247/94
f 140/177/95 139/22/95 98/21/95 101/173/95
f 142/60/96 141/178/96 6/29/96 75/40/96 17/39/96
f 143/248/97 144/249/97 141/250/97 142/251/97
f 149/252/98 148/253/98 146/254/98 150/255/98
f 146/77/99 148/61/99 10/45/99 21/46/99
f 147/256/100 149/252/100 150/255/100 145/257/100
f 154/258/101 151/259/101 152/260/101 153/261/101
f 157/78/102 156/73/102 34/44/102 35/43/102
f 152/262/103 151/263/103 155/71/103 156/73/103
f 154/264/104 153/265/104 157/78/104 158/72/104
f 153/265/105 152/262/105 156/73/105 157/78/105
f 151/263/106 154/264/106 158/72/106 155/71/106
f 159/266/107 161/267/107 160/268/107
f 159/266/108 162/269/108 161/267/108
f 159/266/109 163/270/109 162/269/109
f 159/266/110 160/268/110 163/270/110
