# Blender v2.83.0 OBJ File: 'side_rock_1.blend'
# www.blender.org
mtllib side_rock_1.mtl
o Cube
v 2.281906 2.526113 -3.488694
v 1.825381 -2.865826 -3.448370
v 2.555116 2.303441 2.751690
v 2.460449 -2.771853 2.838014
v 2.128072 -0.144026 -4.016782
v 1.911283 -0.048224 2.744330
v 2.597551 2.724624 -1.024160
v 2.540213 -2.838597 0.124437
v 2.138093 0.315357 -0.022085
v 1.495122 -1.243740 -3.794155
v 2.228155 -1.118006 2.730853
v 2.826639 3.492954 -0.170763
v 1.242665 -2.908724 3.628049
v 1.183101 2.594168 -2.687879
v 2.417987 -2.873717 -1.326323
v 2.002740 1.265574 -4.298600
v 2.517978 1.075510 2.605976
v 1.116073 2.329396 2.742812
v 2.410302 2.663961 -2.104549
v 2.528638 -2.754066 1.510081
v 1.157302 -0.037577 -4.788771
v 2.013695 0.128206 1.361683
v 2.185040 -0.288922 -1.932772
v 3.097606 0.776425 -0.191914
v 1.617286 0.200862 4.314604
v 1.122571 2.641859 0.034840
v 0.895781 2.881892 -1.938910
v 1.054975 2.518313 1.171352
v 2.145386 0.914084 4.156199
v 1.422561 -0.130941 3.694071
v 3.146688 1.036336 -1.786125
v 1.092493 -1.166338 -4.656352
v 0.966288 1.253858 -4.725520
v 3.253339 0.379034 1.571320
v 2.828467 1.745097 1.753304
v 1.525388 2.029071 -4.985973
v 1.620362 -0.633625 -4.194093
v 1.796670 -0.377443 2.245390
v 1.991454 -1.019023 -0.656277
v 2.866904 2.079956 -1.428294
v 1.790542 2.935870 -1.128927
v 1.907736 2.503860 1.796335
v 2.357022 0.500783 3.116353
v 1.838643 -1.979067 3.810966
v 2.461642 2.302114 -2.893737
v 2.478488 -2.665257 2.806902
v 0.627918 -3.101615 -4.389249
v 1.456353 0.401541 -4.338521
v 2.279420 0.533779 0.416116
vt 0.208887 0.799716
vt 0.208887 0.799716
vt 0.208887 0.799716
vt 0.327005 0.809559
vt 0.327005 0.809559
vt 0.327005 0.809559
vt 0.327005 0.809559
vt 0.327005 0.809559
vt 0.327005 0.809559
vt 0.208887 0.799716
vt 0.208887 0.799716
vt 0.208887 0.799716
vt 0.208887 0.799716
vt 0.208887 0.799716
vt 0.208887 0.799716
vt 0.327005 0.809559
vt 0.327005 0.809559
vt 0.327005 0.809559
vt 0.208887 0.799716
vt 0.208887 0.799716
vt 0.208887 0.799716
vt 0.327005 0.809559
vt 0.327005 0.809559
vt 0.208887 0.799716
vt 0.208887 0.799716
vt 0.327005 0.809559
vt 0.327005 0.809559
vt 0.327005 0.809559
vt 0.208887 0.799716
vt 0.208887 0.799716
vt 0.208887 0.799716
vt 0.327005 0.809559
vt 0.327005 0.809559
vt 0.327005 0.809559
vt 0.327005 0.809559
vt 0.208887 0.799716
vt 0.208887 0.799716
vt 0.327005 0.809559
vt 0.327005 0.809559
vt 0.327005 0.809559
vt 0.327005 0.809559
vt 0.327005 0.809559
vt 0.208887 0.799716
vt 0.208887 0.799716
vt 0.327005 0.809559
vt 0.327005 0.809559
vt 0.327005 0.809559
vt 0.208887 0.799716
vt 0.208887 0.799716
vt 0.208887 0.799716
vt 0.327005 0.809559
vt 0.327005 0.809559
vt 0.327005 0.809559
vt 0.327005 0.809559
vt 0.327005 0.809559
vt 0.208887 0.799716
vt 0.208887 0.799716
vt 0.327005 0.809559
vt 0.208887 0.799716
vt 0.208887 0.799716
vt 0.327005 0.809559
vt 0.071084 0.565941
vt 0.071084 0.565941
vt 0.071084 0.565941
vt 0.327005 0.809559
vt 0.327005 0.809559
vt 0.208887 0.799716
vt 0.071084 0.565941
vt 0.071084 0.565941
vt 0.071084 0.565941
vt 0.327005 0.809559
vt 0.208887 0.799716
vt 0.208887 0.799716
vt 0.208887 0.799716
vt 0.071084 0.565941
vt 0.071084 0.565941
vt 0.071084 0.565941
vt 0.208887 0.799716
vt 0.071084 0.565941
vt 0.071084 0.565941
vt 0.071084 0.565941
vt 0.327005 0.809559
vt 0.327005 0.809559
vt 0.327005 0.809559
vt 0.208887 0.799716
vt 0.327005 0.809559
vt 0.327005 0.809559
vt 0.071084 0.565941
vt 0.071084 0.565941
vt 0.071084 0.565941
vt 0.327005 0.809559
vt 0.327005 0.809559
vt 0.208887 0.799716
vt 0.208887 0.799716
vt 0.208887 0.799716
vt 0.327005 0.809559
vt 0.071084 0.565941
vt 0.071084 0.565941
vt 0.208887 0.799716
vt 0.071084 0.565941
vt 0.071084 0.565941
vt 0.208887 0.799716
vt 0.327005 0.809559
vt 0.327005 0.809559
vt 0.327005 0.809559
vt 0.208887 0.799716
vt 0.208887 0.799716
vt 0.327005 0.809559
vn 0.9365 0.2599 0.2352
vn -0.8233 0.5104 -0.2481
vn 0.7205 -0.1215 -0.6828
vn 0.9256 0.1824 0.3317
vn 0.9640 0.1400 0.2262
vn 0.8888 0.3426 -0.3043
vn 0.1186 0.9734 -0.1959
vn -0.2613 0.8633 -0.4319
vn -0.2378 0.9078 0.3454
vn 0.8294 -0.4825 -0.2817
vn 0.9721 -0.0564 0.2278
vn 0.8845 0.1528 0.4408
vn 0.8528 0.2468 0.4603
vn 0.7811 -0.5896 0.2056
vn 0.9548 -0.0210 -0.2964
vn 0.9541 0.1376 -0.2659
vn 0.8600 -0.5069 -0.0588
vn 0.9857 0.1306 0.1063
vn 0.7545 0.1430 -0.6406
vn 0.6807 -0.2844 0.6752
vn 0.4555 -0.8466 0.2751
vn 0.9696 0.1815 0.1640
vn 0.9528 -0.0640 0.2967
vn 0.8576 0.2038 0.4723
vn -0.1261 0.9588 -0.2546
vn 0.8709 0.1142 -0.4780
vn 0.3331 -0.5073 -0.7948
vn 0.5692 -0.3153 -0.7593
vn 0.6716 -0.4977 -0.5489
vn 0.8003 -0.4349 -0.4128
vn 0.9327 -0.3598 0.0232
vn 0.8857 0.2671 -0.3797
vn 0.8988 0.3560 -0.2558
vn 0.9876 -0.1413 0.0690
vn 0.9060 0.0964 -0.4122
vn 0.9635 0.2531 -0.0873
vn 0.8641 0.4715 -0.1762
vn 0.9420 0.3033 0.1440
vn 0.9692 0.2364 0.0684
vn -0.1850 0.9728 0.1396
vn 0.1957 0.9182 0.3443
vn 0.2641 0.9593 -0.0996
vn 0.1297 0.9854 -0.1102
vn -0.0725 0.9899 0.1218
vn 0.0165 0.9807 0.1946
vn -0.2325 0.9082 0.3481
vn -0.4388 0.8958 0.0713
vn -0.4276 0.7259 -0.5388
vn 0.9715 -0.0713 0.2261
vn 0.7863 -0.5023 0.3597
vn 0.6694 -0.7041 0.2370
vn 0.0085 0.7097 0.7045
vn 0.8477 0.2213 0.4821
vn -0.2875 -0.0041 0.9578
vn 0.5166 -0.4718 0.7145
vn 0.5838 -0.7778 0.2327
vn 0.4097 -0.9022 -0.1345
vn 0.9100 -0.0020 -0.4145
vn 0.8111 -0.5816 -0.0626
vn 0.9083 0.3994 -0.1240
vn 0.9131 0.3898 -0.1193
vn 0.9058 0.1406 -0.3996
vn 0.9372 0.0026 -0.3487
vn 0.9866 0.1610 0.0271
vn 0.5860 0.1341 0.7992
vn 0.9871 -0.1528 0.0486
vn 0.9844 0.1757 -0.0025
vn 0.8639 -0.2664 -0.4274
vn 0.6222 -0.0400 -0.7818
vn 0.3754 -0.1955 -0.9060
vn 0.3189 -0.1585 -0.9345
vn 0.6102 0.3252 -0.7224
vn 0.1171 -0.9666 -0.2282
vn 0.2400 -0.9148 -0.3249
vn 0.8381 -0.5455 0.0016
vn 0.9677 -0.0085 -0.2521
vn 0.9714 0.2353 -0.0328
vn 0.2147 -0.9707 -0.1080
usemtl Material
s off
f 34/1/1 12/2/1 35/3/1
f 33/4/2 14/5/2 36/6/2
f 32/7/3 21/8/3 37/9/3
f 20/10/4 22/11/4 38/12/4
f 15/13/5 23/14/5 39/15/5
f 31/16/6 19/17/6 40/18/6
f 19/19/7 27/20/7 41/21/7
f 1/22/8 14/5/8 27/23/8
f 12/2/9 28/24/9 42/25/9
f 6/26/10 17/27/10 43/28/10
f 17/29/11 3/30/11 29/31/11
f 4/32/12 11/33/12 44/34/12
f 11/33/13 6/26/13 30/35/13
f 23/14/14 31/36/14 9/37/14
f 16/38/15 1/22/15 45/39/15
f 2/40/16 10/41/16 15/42/16
f 10/43/17 5/44/17 23/14/17
f 8/45/18 9/46/18 22/47/18
f 21/48/19 33/49/19 48/50/19
f 34/51/20 17/27/20 6/26/20
f 9/46/21 24/52/21 49/53/21
f 12/2/22 3/30/22 35/3/22
f 3/54/23 17/27/23 35/55/23
f 17/29/24 34/1/24 35/3/24
f 14/5/25 1/22/25 36/6/25
f 1/22/26 16/38/26 36/6/26
f 16/56/27 33/49/27 36/57/27
f 21/8/28 5/58/28 37/9/28
f 5/58/29 10/41/29 37/9/29
f 10/43/30 32/59/30 37/60/30
f 22/47/31 6/26/31 38/61/31
f 6/26/32 11/33/32 38/61/32
f 11/62/33 20/63/33 38/64/33
f 23/65/34 9/46/34 39/66/34
f 9/37/35 8/67/35 39/15/35
f 8/68/36 15/69/36 39/70/36
f 19/17/37 7/71/37 40/18/37
f 7/72/38 24/73/38 40/74/38
f 24/75/39 31/76/39 40/77/39
f 27/20/40 26/78/40 41/21/40
f 26/78/41 7/72/41 41/21/41
f 7/79/42 19/80/42 41/81/42
f 19/17/43 1/22/43 27/23/43
f 28/82/44 18/83/44 42/84/44
f 18/85/45 3/30/45 42/25/45
f 3/30/46 12/2/46 42/25/46
f 28/82/47 12/86/47 26/87/47
f 12/86/48 7/71/48 26/87/48
f 17/88/49 29/89/49 43/90/49
f 29/91/50 25/92/50 43/28/50
f 25/92/51 6/26/51 43/28/51
f 3/54/52 18/83/52 29/91/52
f 11/93/53 30/94/53 44/95/53
f 30/35/54 13/96/54 44/34/54
f 13/96/55 4/32/55 44/34/55
f 6/26/56 25/92/56 30/35/56
f 31/16/57 24/52/57 9/46/57
f 16/97/58 31/76/58 5/98/58
f 31/36/59 23/14/59 5/44/59
f 1/22/60 19/17/60 45/39/60
f 19/19/61 31/36/61 45/99/61
f 31/36/62 16/56/62 45/99/62
f 15/69/63 10/100/63 23/101/63
f 20/10/64 11/93/64 46/102/64
f 11/33/65 4/32/65 46/103/65
f 4/32/66 20/104/66 46/103/66
f 20/10/67 8/67/67 22/11/67
f 32/7/68 10/41/68 47/105/68
f 10/43/69 2/106/69 47/107/69
f 33/49/70 16/56/70 48/50/70
f 16/38/71 5/58/71 48/108/71
f 5/58/72 21/8/72 48/108/72
f 24/52/73 34/51/73 49/53/73
f 34/51/74 22/47/74 49/53/74
f 22/47/75 9/46/75 49/53/75
f 12/86/76 34/51/76 7/71/76
f 34/1/77 24/73/77 7/72/77
f 22/47/78 34/51/78 6/26/78
