# Blender v2.83.0 OBJ File: 'tank.blend'
# www.blender.org
mtllib tank.mtl
o Cube
v 1.204768 -0.170213 -0.170213
v 1.073259 -0.314512 -0.314513
v 0.876441 -0.410930 -0.410931
v -0.833689 -0.410930 -0.410931
v -1.030507 -0.314512 -0.314513
v -1.162016 -0.170213 -0.170213
v 1.204768 -0.240717 -0.000000
v 1.073259 -0.444788 -0.000000
v 0.876441 -0.581143 -0.000000
v -0.833689 -0.581143 -0.000000
v -1.030507 -0.444788 -0.000000
v -1.162016 -0.240717 -0.000000
v 1.204768 -0.170213 0.170213
v 1.073259 -0.314512 0.314512
v 0.876441 -0.410930 0.410930
v -0.833689 -0.410930 0.410930
v -1.030507 -0.314512 0.314512
v -1.162016 -0.170213 0.170213
v 1.204768 -0.000000 0.240717
v 1.073259 -0.000000 0.444788
v 0.876441 -0.000000 0.581143
v -0.833689 -0.000000 0.581143
v -1.030507 0.000000 0.444788
v -1.162016 0.000000 0.240717
v 1.204768 0.170213 0.170213
v 1.073259 0.314512 0.314512
v 0.876441 0.410930 0.410930
v -0.833689 0.410930 0.410930
v -1.030507 0.314512 0.314512
v -1.162016 0.170213 0.170213
v 1.204768 0.240717 -0.000000
v 1.073259 0.444788 -0.000000
v 0.876441 0.581143 -0.000000
v -0.833689 0.581143 -0.000000
v -1.030507 0.444788 -0.000000
v -1.162016 0.240717 -0.000000
v 1.204768 0.170213 -0.170213
v 1.073259 0.314512 -0.314513
v 0.876441 0.410930 -0.410930
v -0.833689 0.410930 -0.410930
v -1.030507 0.314512 -0.314513
v -1.162016 0.170213 -0.170213
v 1.204768 -0.000000 -0.240718
v 1.073259 -0.000000 -0.444788
v 0.876441 0.000000 -0.581143
v -0.833689 0.000000 -0.581143
v -1.030507 0.000000 -0.444788
v -1.162016 0.000000 -0.240718
v -0.706741 0.000000 -0.603135
v 0.749493 -0.000000 -0.603135
v 0.749493 -0.426480 -0.426481
v -0.706741 -0.426481 -0.426481
v 0.749493 -0.603134 -0.000000
v -0.706741 -0.603134 -0.000000
v 0.749493 -0.426480 0.426480
v -0.706741 -0.426480 0.426480
v 0.749493 -0.000000 0.603134
v -0.706741 -0.000000 0.603134
v 0.749493 0.426480 0.426480
v -0.706741 0.426480 0.426480
v 0.749493 0.603134 -0.000000
v -0.706741 0.603134 -0.000000
v 0.749493 0.426480 -0.426481
v -0.706741 0.426480 -0.426481
v 0.522587 0.467980 0.467979
v 0.474908 0.467980 0.467979
v -0.432156 0.467980 0.467979
v -0.479835 0.467980 0.467979
v 0.522587 0.661823 -0.000000
v 0.474908 0.661823 -0.000000
v -0.432156 0.661823 -0.000000
v -0.479835 0.661823 -0.000000
v -0.432156 0.467980 -0.467980
v -0.479835 0.467980 -0.467980
v -0.479835 0.000000 -0.661823
v -0.432156 0.000000 -0.661823
v 0.522587 0.467980 -0.467980
v 0.474908 0.467980 -0.467980
v 0.474908 0.000000 -0.661823
v 0.522587 0.000000 -0.661823
v -0.432156 0.000000 -0.603134
v -0.479835 0.000000 -0.603134
v 0.522587 -0.000000 -0.603134
v 0.474908 -0.000000 -0.603134
v 0.474908 -0.426480 -0.426481
v 0.522587 -0.426480 -0.426481
v -0.479835 -0.426480 -0.426481
v -0.432156 -0.426480 -0.426481
v 0.474908 -0.603134 -0.000000
v 0.522587 -0.603134 -0.000000
v -0.479835 -0.603134 -0.000000
v -0.432156 -0.603134 -0.000000
v 0.474908 -0.426480 0.426480
v 0.522587 -0.426480 0.426480
v -0.479835 -0.426480 0.426480
v -0.432156 -0.426480 0.426480
v 0.474908 -0.000000 0.603134
v 0.522587 -0.000000 0.603134
v -0.479835 -0.000000 0.603134
v -0.432156 -0.000000 0.603134
v 0.474908 0.426480 0.426480
v 0.522587 0.426480 0.426480
v -0.479835 0.426480 0.426480
v -0.432156 0.426480 0.426480
v 0.474908 0.603134 -0.000000
v 0.522587 0.603134 -0.000000
v -0.479835 0.603134 -0.000000
v -0.432156 0.603134 -0.000000
v 0.474908 0.426480 -0.426480
v 0.522587 0.426480 -0.426480
v -0.479835 0.426480 -0.426480
v -0.432156 0.426480 -0.426480
v 0.474908 -0.000000 0.661823
v 0.522587 -0.000000 0.661823
v -0.479835 -0.000000 0.661823
v -0.432156 -0.000000 0.661823
v 0.474908 -0.467980 0.467980
v 0.522587 -0.467980 0.467980
v -0.479835 -0.467980 0.467980
v -0.432156 -0.467980 0.467980
v -0.479835 -0.661823 -0.000000
v -0.432156 -0.661823 -0.000000
v 0.474908 -0.661823 -0.000000
v 0.522587 -0.661823 -0.000000
v -0.479835 -0.467980 -0.467980
v -0.432156 -0.467980 -0.467980
v 0.474908 -0.467980 -0.467980
v 0.522587 -0.467980 -0.467980
vt 0.453494 0.309326
vt 0.453494 0.309326
vt 0.453494 0.309326
vt 0.453494 0.309326
vt 0.569759 0.321727
vt 0.569759 0.321727
vt 0.569759 0.321727
vt 0.569759 0.321727
vt 0.453494 0.309326
vt 0.453494 0.309326
vt 0.453494 0.309326
vt 0.453494 0.309326
vt 0.453494 0.309326
vt 0.453494 0.309326
vt 0.569759 0.321727
vt 0.569759 0.321727
vt 0.569759 0.321727
vt 0.569759 0.321727
vt 0.453494 0.309326
vt 0.453494 0.309326
vt 0.569759 0.321727
vt 0.569759 0.321727
vt 0.569759 0.321727
vt 0.569759 0.321727
vt 0.569759 0.321727
vt 0.569759 0.321727
vt 0.569759 0.321727
vt 0.569759 0.321727
vt 0.569759 0.321727
vt 0.569759 0.321727
vt 0.569759 0.321727
vt 0.569759 0.321727
vt 0.453494 0.309326
vt 0.453494 0.309326
vt 0.453494 0.309326
vt 0.453494 0.309326
vt 0.453494 0.309326
vt 0.453494 0.309326
vt 0.453494 0.309326
vt 0.453494 0.309326
vt 0.453494 0.309326
vt 0.453494 0.309326
vt 0.453494 0.309326
vt 0.453494 0.309326
vt 0.453494 0.309326
vt 0.453494 0.309326
vt 0.453494 0.309326
vt 0.453494 0.309326
vt 0.569759 0.321727
vt 0.569759 0.321727
vt 0.569759 0.321727
vt 0.569759 0.321727
vt 0.569759 0.321727
vt 0.569759 0.321727
vt 0.569759 0.321727
vt 0.569759 0.321727
vt 0.569759 0.321727
vt 0.569759 0.321727
vt 0.569759 0.321727
vt 0.569759 0.321727
vt 0.453494 0.309326
vt 0.453494 0.309326
vt 0.453494 0.309326
vt 0.453494 0.309326
vt 0.569759 0.321727
vt 0.569759 0.321727
vt 0.569759 0.321727
vt 0.569759 0.321727
vt 0.453494 0.309326
vt 0.453494 0.309326
vt 0.453494 0.309326
vt 0.453494 0.309326
vt 0.569759 0.321727
vt 0.569759 0.321727
vt 0.569759 0.321727
vt 0.569759 0.321727
vt 0.453494 0.309326
vt 0.453494 0.309326
vt 0.453494 0.309326
vt 0.453494 0.309326
vt 0.453494 0.309326
vt 0.453494 0.309326
vt 0.453494 0.309326
vt 0.453494 0.309326
vt 0.428691 0.312426
vt 0.428691 0.312426
vt 0.428691 0.312426
vt 0.428691 0.312426
vt 0.428691 0.312426
vt 0.428691 0.312426
vt 0.428691 0.312426
vt 0.428691 0.312426
vt 0.428691 0.312426
vt 0.428691 0.312426
vt 0.428691 0.312426
vt 0.428691 0.312426
vt 0.428691 0.312426
vt 0.428691 0.312426
vt 0.428691 0.312426
vt 0.428691 0.312426
vt 0.569759 0.321727
vt 0.569759 0.321727
vt 0.569759 0.321727
vt 0.569759 0.321727
vt 0.569759 0.321727
vt 0.569759 0.321727
vt 0.569759 0.321727
vt 0.569759 0.321727
vt 0.569759 0.321727
vt 0.569759 0.321727
vt 0.569759 0.321727
vt 0.569759 0.321727
vt 0.453494 0.309326
vt 0.453494 0.309326
vt 0.453494 0.309326
vt 0.453494 0.309326
vt 0.453494 0.309326
vt 0.453494 0.309326
vt 0.453494 0.309326
vt 0.453494 0.309326
vt 0.453494 0.309326
vt 0.453494 0.309326
vt 0.453494 0.309326
vt 0.453494 0.309326
vt 0.453494 0.309326
vt 0.453494 0.309326
vt 0.453494 0.309326
vt 0.453494 0.309326
vt 0.569759 0.321727
vt 0.569759 0.321727
vt 0.569759 0.321727
vt 0.569759 0.321727
vt 0.569759 0.321727
vt 0.569759 0.321727
vt 0.569759 0.321727
vt 0.569759 0.321727
vt 0.569759 0.321727
vt 0.569759 0.321727
vt 0.453494 0.309326
vt 0.453494 0.309326
vt 0.569759 0.321727
vt 0.569759 0.321727
vt 0.453494 0.309326
vt 0.453494 0.309326
vt 0.453494 0.309326
vt 0.453494 0.309326
vt 0.569759 0.321727
vt 0.569759 0.321727
vt 0.569759 0.321727
vt 0.569759 0.321727
vt 0.453494 0.309326
vt 0.453494 0.309326
vt 0.453494 0.309326
vt 0.453494 0.309326
vt 0.453494 0.309326
vt 0.453494 0.309326
vt 0.569759 0.321727
vt 0.569759 0.321727
vt 0.569759 0.321727
vt 0.569759 0.321727
vt 0.569759 0.321727
vt 0.569759 0.321727
vt 0.453494 0.309326
vt 0.453494 0.309326
vt 0.453494 0.309326
vt 0.453494 0.309326
vt 0.453494 0.309326
vt 0.453494 0.309326
vt 0.453494 0.309326
vt 0.453494 0.309326
vt 0.569759 0.321727
vt 0.569759 0.321727
vt 0.453494 0.309326
vt 0.453494 0.309326
vt 0.171358 0.797638
vt 0.171358 0.797638
vt 0.171358 0.797638
vt 0.171358 0.797638
vt 0.453494 0.309326
vt 0.453494 0.309326
vt 0.453494 0.309326
vt 0.453494 0.309326
vt 0.569759 0.321727
vt 0.569759 0.321727
vt 0.453494 0.309326
vt 0.453494 0.309326
vt 0.453494 0.309326
vt 0.453494 0.309326
vt 0.453494 0.309326
vt 0.453494 0.309326
vt 0.569759 0.321727
vt 0.569759 0.321727
vt 0.569759 0.321727
vt 0.569759 0.321727
vt 0.569759 0.321727
vt 0.569759 0.321727
vt 0.569759 0.321727
vt 0.569759 0.321727
vt 0.453494 0.309326
vt 0.453494 0.309326
vt 0.453494 0.309326
vt 0.453494 0.309326
vt 0.569759 0.321727
vt 0.569759 0.321727
vt 0.569759 0.321727
vt 0.569759 0.321727
vt 0.569759 0.321727
vt 0.569759 0.321727
vt 0.569759 0.321727
vt 0.569759 0.321727
vt 0.171358 0.797638
vt 0.171358 0.797638
vt 0.171358 0.797638
vt 0.171358 0.797638
vt 0.171358 0.797638
vt 0.171358 0.797638
vt 0.171358 0.797638
vt 0.171358 0.797638
vt 0.171358 0.797638
vt 0.171358 0.797638
vt 0.171358 0.797638
vt 0.171358 0.797638
vt 0.171358 0.797638
vt 0.171358 0.797638
vt 0.171358 0.797638
vt 0.171358 0.797638
vt 0.171358 0.797638
vt 0.171358 0.797638
vt 0.171358 0.797638
vt 0.171358 0.797638
vt 0.171358 0.797638
vt 0.171358 0.797638
vt 0.171358 0.797638
vt 0.171358 0.797638
vt 0.171358 0.797638
vt 0.171358 0.797638
vt 0.171358 0.797638
vt 0.171358 0.797638
vt 0.171358 0.797638
vt 0.171358 0.797638
vt 0.171358 0.797638
vt 0.171358 0.797638
vt 0.171358 0.797638
vt 0.171358 0.797638
vt 0.171358 0.797638
vt 0.171358 0.797638
vt 0.171358 0.797638
vt 0.171358 0.797638
vt 0.171358 0.797638
vt 0.171358 0.797638
vt 0.171358 0.797638
vt 0.171358 0.797638
vt 0.171358 0.797638
vt 0.171358 0.797638
vt 0.171358 0.797638
vt 0.171358 0.797638
vt 0.171358 0.797638
vt 0.569759 0.321727
vt 0.569759 0.321727
vt 0.171358 0.797638
vt 0.171358 0.797638
vt 0.086098 0.805389
vt 0.086098 0.805389
vt 0.086098 0.805389
vt 0.086098 0.805389
vt 0.086098 0.805389
vt 0.086098 0.805389
vt 0.086098 0.805389
vt 0.086098 0.805389
vt 0.171358 0.797638
vt 0.171358 0.797638
vt 0.086098 0.805389
vt 0.086098 0.805389
vt 0.086098 0.805389
vt 0.086098 0.805389
vt 0.086098 0.805389
vt 0.086098 0.805389
vt 0.086098 0.805389
vt 0.086098 0.805389
vt 0.171358 0.797638
vt 0.086098 0.805389
vt 0.086098 0.805389
vt 0.086098 0.805389
vt 0.086098 0.805389
vt 0.086098 0.805389
vt 0.086098 0.805389
vt 0.086098 0.805389
vt 0.086098 0.805389
vt 0.171358 0.797638
vt 0.086098 0.805389
vt 0.086098 0.805389
vt 0.086098 0.805389
vt 0.086098 0.805389
vt 0.086098 0.805389
vt 0.086098 0.805389
vt 0.086098 0.805389
vt 0.086098 0.805389
vt 0.171358 0.797638
vt 0.171358 0.797638
vt 0.171358 0.797638
vt 0.171358 0.797638
vt 0.171358 0.797638
vt 0.171358 0.797638
vt 0.171358 0.797638
vn -0.8202 -0.2189 -0.5286
vn 0.1580 -0.9123 -0.3779
vn 0.5391 -0.3223 -0.7781
vn -0.5391 -0.3223 -0.7781
vn -0.1580 0.3779 -0.9123
vn 0.8202 -0.2189 -0.5286
vn 0.5391 -0.7781 -0.3223
vn -0.5391 -0.7781 -0.3223
vn -0.1580 -0.9123 -0.3779
vn 0.8202 -0.5286 -0.2189
vn -0.8202 -0.5286 -0.2189
vn 0.1580 -0.9123 0.3779
vn -0.5391 -0.7781 0.3223
vn -0.1580 -0.9123 0.3779
vn 0.8202 -0.5286 0.2189
vn -0.8202 -0.5286 0.2189
vn 0.1580 -0.3779 0.9123
vn 0.5391 -0.7781 0.3223
vn 0.8202 -0.2189 0.5286
vn -0.8202 -0.2189 0.5286
vn 0.1580 0.3779 0.9123
vn 0.5391 -0.3223 0.7781
vn -0.5391 -0.3223 0.7781
vn -0.1580 -0.3779 0.9123
vn -0.8202 0.2189 0.5286
vn 0.1580 0.9123 0.3779
vn 0.5391 0.3223 0.7781
vn -0.5391 0.3223 0.7781
vn -0.1580 0.3779 0.9123
vn 0.8202 0.2189 0.5286
vn 1.0000 0.0000 0.0000
vn -1.0000 0.0000 0.0000
vn -0.5391 0.7781 0.3223
vn -0.1580 0.9123 0.3779
vn 0.8202 0.5286 0.2189
vn -0.8202 0.5286 0.2189
vn 0.1580 0.9123 -0.3779
vn 0.5391 0.7781 0.3223
vn -0.5391 0.7781 -0.3223
vn -0.1580 0.9123 -0.3779
vn 0.8202 0.5286 -0.2189
vn -0.8202 0.5286 -0.2189
vn 0.5391 0.7781 -0.3223
vn -0.8202 0.2189 -0.5286
vn 0.1580 0.3779 -0.9123
vn 0.5391 0.3223 -0.7781
vn -0.5391 0.3223 -0.7781
vn -0.1580 -0.3779 -0.9123
vn 0.8202 0.2189 -0.5286
vn -0.0000 -0.3827 -0.9239
vn 0.0000 -0.9239 -0.3827
vn 0.0000 -0.9239 0.3827
vn -0.0000 0.3827 0.9239
vn 0.0000 0.9239 0.3827
vn 0.0000 0.9239 -0.3827
vn 0.1580 -0.3779 -0.9123
vn 0.0000 0.3827 -0.9239
vn 0.0000 -0.3827 0.9239
usemtl Material
s off
f 48/1/1 47/2/1 5/3/1 6/4/1
f 51/5/2 3/6/2 9/7/2 53/8/2
f 45/9/3 44/10/3 2/11/3 3/12/3
f 47/2/4 46/13/4 4/14/4 5/3/4
f 40/15/5 64/16/5 49/17/5 46/18/5
f 44/10/6 43/19/6 1/20/6 2/11/6
f 3/6/7 2/21/7 8/22/7 9/7/7
f 5/23/8 4/24/8 10/25/8 11/26/8
f 4/24/9 52/27/9 54/28/9 10/25/9
f 2/21/10 1/29/10 7/30/10 8/22/10
f 6/31/11 5/23/11 11/26/11 12/32/11
f 53/33/12 9/34/12 15/35/12 55/36/12
f 11/37/13 10/38/13 16/39/13 17/40/13
f 10/38/14 54/41/14 56/42/14 16/39/14
f 8/43/15 7/44/15 13/45/15 14/46/15
f 12/47/16 11/37/16 17/40/16 18/48/16
f 55/49/17 15/50/17 21/51/17 57/52/17
f 9/34/18 8/43/18 14/46/18 15/35/18
f 14/53/19 13/54/19 19/55/19 20/56/19
f 18/57/20 17/58/20 23/59/20 24/60/20
f 57/61/21 21/62/21 27/63/21 59/64/21
f 15/50/22 14/53/22 20/56/22 21/51/22
f 17/58/23 16/65/23 22/66/23 23/59/23
f 16/65/24 56/67/24 58/68/24 22/66/24
f 24/69/25 23/70/25 29/71/25 30/72/25
f 59/73/26 27/74/26 33/75/26 61/76/26
f 21/62/27 20/77/27 26/78/27 27/63/27
f 23/70/28 22/79/28 28/80/28 29/71/28
f 22/79/29 58/81/29 60/82/29 28/80/29
f 20/77/30 19/83/30 25/84/30 26/78/30
f 7/85/31 1/86/31 43/87/31 37/88/31 31/89/31 25/90/31 19/91/31 13/92/31
f 42/93/32 48/94/32 6/95/32 12/96/32 18/97/32 24/98/32 30/99/32 36/100/32
f 29/101/33 28/102/33 34/103/33 35/104/33
f 28/102/34 60/105/34 62/106/34 34/103/34
f 26/107/35 25/108/35 31/109/35 32/110/35
f 30/111/36 29/101/36 35/104/36 36/112/36
f 61/113/37 33/114/37 39/115/37 63/116/37
f 27/74/38 26/107/38 32/110/38 33/75/38
f 35/117/39 34/118/39 40/119/39 41/120/39
f 34/118/40 62/121/40 64/122/40 40/119/40
f 32/123/41 31/124/41 37/125/41 38/126/41
f 36/127/42 35/117/42 41/120/42 42/128/42
f 33/114/43 32/123/43 38/126/43 39/115/43
f 42/129/44 41/130/44 47/131/44 48/132/44
f 63/133/45 39/134/45 45/135/45 50/136/45
f 39/134/46 38/137/46 44/138/46 45/135/46
f 41/130/47 40/15/47 46/18/47 47/131/47
f 46/13/48 49/139/48 52/140/48 4/14/48
f 38/137/49 37/141/49 43/142/49 44/138/49
f 50/143/50 51/144/50 86/145/50 83/146/50
f 92/147/51 88/148/51 85/149/51 89/150/51
f 96/151/52 92/152/52 89/153/52 93/154/52
f 57/61/53 59/64/53 102/155/53 98/156/53
f 106/157/54 102/158/54 59/73/54 61/76/54
f 108/159/54 104/160/54 101/161/54 105/162/54
f 112/163/55 108/164/55 105/165/55 109/166/55
f 84/167/50 85/168/50 88/169/50 81/170/50
f 50/143/56 45/9/56 3/12/56 51/144/56
f 90/171/51 86/172/51 51/5/51 53/8/51
f 82/173/50 87/174/50 52/140/50 49/139/50
f 79/175/57 78/176/57 77/177/57 80/178/57
f 64/122/55 62/121/55 107/179/55 111/180/55
f 110/181/55 106/182/55 61/113/55 63/116/55
f 62/106/54 60/105/54 103/183/54 107/184/54
f 97/185/53 101/186/53 104/187/53 100/188/53
f 99/189/53 103/190/53 60/82/53 58/81/53
f 93/191/58 97/192/58 100/193/58 96/194/58
f 95/195/58 99/196/58 58/68/58 56/67/58
f 55/49/58 57/52/58 98/197/58 94/198/58
f 56/42/52 54/41/52 91/199/52 95/200/52
f 94/201/52 90/202/52 53/33/52 55/36/52
f 54/28/51 52/27/51 87/203/51 91/204/51
f 63/133/57 50/136/57 83/205/57 110/206/57
f 109/207/57 84/208/57 81/209/57 112/210/57
f 99/211/32 95/212/32 119/213/32 115/214/32
f 86/215/31 90/216/31 124/217/31 128/218/31
f 104/219/31 108/220/31 71/221/31 67/222/31
f 94/223/31 98/224/31 114/225/31 118/226/31
f 84/227/32 109/228/32 78/176/32 79/175/32
f 91/229/32 87/230/32 125/231/32 121/232/32
f 109/228/32 105/233/32 70/234/32 78/176/32
f 97/235/32 93/236/32 117/237/32 113/238/32
f 88/239/31 92/240/31 122/241/31 126/242/31
f 106/243/31 110/244/31 77/177/31 69/245/31
f 100/246/31 104/219/31 67/222/31 116/247/31
f 93/236/32 89/248/32 123/249/32 117/237/32
f 111/250/32 107/251/32 72/252/32 74/253/32
f 103/254/32 99/211/32 115/214/32 68/255/32
f 90/216/31 94/223/31 118/226/31 124/217/31
f 108/220/31 112/256/31 73/257/31 71/221/31
f 111/258/57 82/259/57 49/17/57 64/16/57
f 75/260/57 74/253/57 73/257/57 76/261/57
f 71/262/55 73/263/55 74/264/55 72/265/55
f 69/266/55 77/267/55 78/268/55 70/269/55
f 67/222/54 71/221/54 72/252/54 68/255/54
f 65/270/54 69/245/54 70/234/54 66/271/54
f 66/272/53 113/273/53 114/274/53 65/275/53
f 68/276/53 115/277/53 116/278/53 67/279/53
f 113/238/58 117/237/58 118/226/58 114/225/58
f 115/214/58 119/213/58 120/280/58 116/247/58
f 122/281/52 120/282/52 119/283/52 121/284/52
f 124/285/52 118/286/52 117/287/52 123/288/52
f 126/242/51 122/241/51 121/232/51 125/231/51
f 128/218/51 124/217/51 123/249/51 127/289/51
f 127/290/50 79/291/50 80/292/50 128/293/50
f 125/294/50 75/295/50 76/296/50 126/297/50
f 107/251/32 103/254/32 68/255/32 72/252/32
f 89/248/32 85/298/32 127/289/32 123/249/32
f 110/244/31 83/299/31 80/178/31 77/177/31
f 85/298/32 84/227/32 79/175/32 127/289/32
f 96/300/31 100/246/31 116/247/31 120/280/31
f 102/301/31 106/243/31 69/245/31 65/270/31
f 83/299/31 86/215/31 128/218/31 80/178/31
f 82/302/32 111/250/32 74/253/32 75/260/32
f 105/233/32 101/303/32 66/271/32 70/234/32
f 87/230/32 82/302/32 75/260/32 125/231/32
f 92/240/31 96/300/31 120/280/31 122/241/31
f 101/303/32 97/235/32 113/238/32 66/271/32
f 81/304/31 88/239/31 126/242/31 76/261/31
f 112/256/31 81/304/31 76/261/31 73/257/31
f 95/212/32 91/229/32 121/232/32 119/213/32
f 98/224/31 102/301/31 65/270/31 114/225/31
