# Blender v2.83.0 OBJ File: 'treasure_2.blend'
# www.blender.org
mtllib treasure_2.mtl
o Cube
v 0.857476 0.671422 1.460984
v -0.876136 0.671422 1.460984
v 0.857540 0.685812 -1.460984
v 0.857476 -0.693744 1.460984
v -0.876136 -0.693744 1.460984
v 0.973450 0.273859 -1.460984
v 1.000000 0.303169 -1.460984
v 1.000000 0.244550 -1.460984
v 0.973450 -0.273572 -1.460984
v 1.000000 -0.244262 -1.460984
v 1.000000 -0.302881 -1.460984
v -0.973450 -0.273572 1.460984
v -1.000000 -0.244262 1.460984
v -1.000000 -0.302881 1.460984
v -0.973450 0.273859 1.460984
v -1.000000 0.303169 1.460984
v -1.000000 0.244550 1.460984
v 0.973450 0.273859 1.460984
v 1.000000 0.244550 1.460984
v 1.000000 0.303169 1.460984
v 0.973450 -0.273572 1.460984
v 1.000000 -0.302881 1.460984
v 1.000000 -0.244262 1.460984
v -0.973450 0.273859 -1.460984
v -1.000000 0.244550 -1.460984
v -1.000000 0.303169 -1.460984
v -0.973450 -0.273572 -1.460984
v -1.000000 -0.302881 -1.460984
v -1.000000 -0.244262 -1.460984
v 0.333333 -0.791694 -1.460984
v 0.359883 -0.821003 -1.460984
v 0.306784 -0.821003 -1.460984
v -0.333333 -0.791694 -1.460984
v -0.306784 -0.821003 -1.460984
v -0.359883 -0.821003 -1.460984
v 0.333333 0.791981 1.460984
v 0.359883 0.821290 1.460984
v 0.306784 0.821290 1.460984
v -0.333333 0.791981 1.460984
v -0.306784 0.821290 1.460984
v -0.359883 0.821290 1.460984
v -0.333333 -0.791694 1.460984
v -0.359883 -0.821003 1.460984
v -0.306784 -0.821003 1.460984
v 0.333333 -0.791694 1.460984
v 0.306784 -0.821003 1.460984
v 0.359883 -0.821003 1.460984
v -0.333333 0.791981 -1.460984
v -0.359883 0.821290 -1.460984
v -0.306784 0.821290 -1.460984
v 0.333333 0.791981 -1.460984
v 0.306784 0.821290 -1.460984
v 0.359883 0.821290 -1.460984
v 1.000000 0.821290 -1.460984
v 1.000000 0.821290 1.460984
v 1.000000 -0.821003 -1.460984
v 1.000000 -0.821003 1.460984
v -1.000000 -0.821003 1.460984
v -1.000000 -0.821003 -1.460984
v -1.000000 0.821290 1.460984
v -1.000000 0.821290 -1.460984
v -0.867590 0.685812 -1.460984
v -0.867590 -0.690396 -1.460984
v 0.857540 -0.690396 -1.460984
v -0.867590 0.685812 -1.356846
v -0.867590 -0.690396 -1.356847
v 0.857476 -0.693744 1.356846
v -0.876136 -0.693744 1.356846
v -0.876136 0.671422 1.356846
v 0.857476 0.671422 1.356846
v 0.857540 0.685812 -1.356846
v 0.857540 -0.690396 -1.356846
vt 0.691406 0.320313
vt 0.691406 0.320313
vt 0.691406 0.320313
vt 0.691406 0.320313
vt 0.691406 0.320313
vt 0.691406 0.320313
vt 0.691406 0.320313
vt 0.691406 0.320313
vt 0.691406 0.320313
vt 0.691406 0.320313
vt 0.691406 0.320313
vt 0.691406 0.320313
vt 0.691406 0.320313
vt 0.691406 0.320313
vt 0.691406 0.320313
vt 0.691406 0.320313
vt 0.691406 0.320313
vt 0.691406 0.320313
vt 0.691406 0.320313
vt 0.691406 0.320313
vt 0.691406 0.320313
vt 0.691406 0.320313
vt 0.691406 0.320313
vt 0.691406 0.320313
vt 0.691406 0.320313
vt 0.691406 0.320313
vt 0.691406 0.320313
vt 0.691406 0.320313
vt 0.691406 0.320313
vt 0.691406 0.320313
vt 0.691406 0.320313
vt 0.691406 0.320313
vt 0.691406 0.320313
vt 0.691406 0.320313
vt 0.691406 0.320313
vt 0.691406 0.320313
vt 0.691406 0.320313
vt 0.691406 0.320313
vt 0.691406 0.320313
vt 0.691406 0.320313
vt 0.451172 0.306641
vt 0.451172 0.306641
vt 0.451172 0.306641
vt 0.451172 0.306641
vt 0.451172 0.306641
vt 0.451172 0.306641
vt 0.451172 0.306641
vt 0.451172 0.306641
vt 0.451172 0.306641
vt 0.451172 0.306641
vt 0.451172 0.306641
vt 0.451172 0.306641
vt 0.451172 0.306641
vt 0.451172 0.306641
vt 0.451172 0.306641
vt 0.451172 0.306641
vt 0.451172 0.306641
vt 0.451172 0.306641
vt 0.451172 0.306641
vt 0.451172 0.306641
vt 0.451172 0.306641
vt 0.451172 0.306641
vt 0.451172 0.306641
vt 0.451172 0.306641
vt 0.451172 0.306641
vt 0.451172 0.306641
vt 0.451172 0.306641
vt 0.451172 0.306641
vt 0.451172 0.306641
vt 0.451172 0.306641
vt 0.451172 0.306641
vt 0.451172 0.306641
vt 0.451172 0.306641
vt 0.451172 0.306641
vt 0.451172 0.306641
vt 0.451172 0.306641
vt 0.451172 0.306641
vt 0.451172 0.306641
vt 0.451172 0.306641
vt 0.451172 0.306641
vt 0.451172 0.306641
vt 0.451172 0.306641
vt 0.451172 0.306641
vt 0.451172 0.306641
vt 0.451172 0.306641
vt 0.451172 0.306641
vt 0.691406 0.320313
vt 0.691406 0.320313
vt 0.691406 0.320313
vt 0.691406 0.320313
vt 0.691406 0.320313
vt 0.691406 0.320313
vt 0.691406 0.320313
vt 0.691406 0.320313
vt 0.691406 0.320313
vt 0.691406 0.320313
vt 0.691406 0.320313
vt 0.691406 0.320313
vt 0.691406 0.320313
vt 0.691406 0.320313
vt 0.691406 0.320313
vt 0.691406 0.320313
vt 0.691406 0.320313
vt 0.691406 0.320313
vt 0.691406 0.320313
vt 0.691406 0.320313
vt 0.691406 0.320313
vt 0.691406 0.320313
vt 0.691406 0.320313
vt 0.691406 0.320313
vt 0.691406 0.320313
vt 0.691406 0.320313
vt 0.691406 0.320313
vt 0.691406 0.320313
vt 0.558594 0.314453
vt 0.558594 0.314453
vt 0.558594 0.314453
vt 0.558594 0.314453
vt 0.558594 0.314453
vt 0.558594 0.314453
vt 0.558594 0.314453
vt 0.558594 0.314453
vt 0.691406 0.320313
vt 0.691406 0.320313
vt 0.691406 0.320313
vt 0.691406 0.320313
vt 0.451172 0.306641
vt 0.451172 0.306641
vn 1.0000 0.0000 0.0000
vn -1.0000 0.0000 0.0000
vn 0.0000 -1.0000 0.0000
vn 0.0000 1.0000 0.0000
vn -0.7411 -0.6714 0.0000
vn 0.7411 -0.6714 0.0000
vn -0.7411 0.6714 -0.0000
vn 0.7411 0.6714 0.0000
vn 0.0000 0.0000 1.0000
vn 0.0000 0.0000 -1.0000
usemtl Material
s off
f 10/1/1 8/2/1 19/3/1 23/4/1
f 56/5/1 11/6/1 22/7/1 57/8/1
f 7/9/1 54/10/1 55/11/1 20/12/1
f 58/13/2 14/14/2 28/15/2 59/16/2
f 13/17/2 17/18/2 25/19/2 29/20/2
f 16/21/2 60/22/2 61/23/2 26/24/2
f 31/25/3 56/5/3 57/8/3 47/26/3
f 34/27/3 32/28/3 46/29/3 44/30/3
f 54/10/4 53/31/4 37/32/4 55/11/4
f 59/16/3 35/33/3 43/34/3 58/13/3
f 52/35/4 50/36/4 40/37/4 38/38/4
f 49/39/4 61/23/4 60/22/4 41/40/4
f 30/41/5 31/42/5 47/43/5 45/44/5
f 32/45/6 30/41/6 45/44/6 46/46/6
f 35/47/6 33/48/6 42/49/6 43/50/6
f 33/48/5 34/51/5 44/52/5 42/49/5
f 14/53/7 12/54/7 27/55/7 28/56/7
f 12/54/5 13/57/5 29/58/5 27/55/5
f 17/59/7 15/60/7 24/61/7 25/62/7
f 15/60/5 16/63/5 26/64/5 24/61/5
f 41/65/8 39/66/8 48/67/8 49/68/8
f 39/66/7 40/69/7 50/70/7 48/67/7
f 36/71/7 37/72/7 53/73/7 51/74/7
f 11/75/8 9/76/8 21/77/8 22/78/8
f 9/76/6 10/79/6 23/80/6 21/77/6
f 8/81/8 6/82/8 18/83/8 19/84/8
f 6/82/6 7/85/6 20/86/6 18/83/6
f 63/87/1 62/88/1 65/89/1 66/90/1
f 60/22/9 2/91/9 1/92/9 55/11/9 37/32/9 36/93/9 38/38/9 40/37/9 39/94/9 41/40/9
f 6/95/10 8/2/10 10/1/10 9/96/10 11/6/10 56/5/10 64/97/10 3/98/10 54/10/10 7/9/10
f 15/99/9 17/18/9 13/17/9 12/100/9 14/14/9 58/13/9 43/34/9 42/101/9 44/30/9 46/29/9 45/102/9 47/26/9 57/8/9 22/7/9 21/103/9 23/4/9 19/3/9 18/104/9 20/12/9 55/11/9 1/92/9 4/105/9 5/106/9 2/91/9 60/22/9 16/21/9
f 54/10/10 3/98/10 62/88/10 61/23/10 49/39/10 48/107/10 50/36/10 52/35/10 51/108/10 53/31/10
f 61/23/10 62/88/10 63/87/10 64/97/10 56/5/10 31/25/10 30/109/10 32/28/10 34/27/10 33/110/10 35/33/10 59/16/10 28/15/10 27/111/10 29/20/10 25/19/10 24/112/10 26/24/10
f 1/92/3 2/91/3 69/113/3 70/114/3
f 69/115/9 68/116/9 67/117/9 70/118/9
f 66/119/10 65/120/10 71/121/10 72/122/10
f 64/97/4 63/87/4 66/90/4 72/123/4
f 2/91/1 5/106/1 68/124/1 69/113/1
f 5/106/4 4/105/4 67/125/4 68/124/4
f 3/98/2 64/97/2 72/123/2 71/126/2
f 4/105/2 1/92/2 70/114/2 67/125/2
f 62/88/3 3/98/3 71/126/3 65/89/3
f 38/127/8 36/71/8 51/74/8 52/128/8
l 59 63
l 5 58
l 4 57
